{"glyphs":{"0":{"ha":556,"x_min":0,"x_max":0,"o":"m 278 -14 b 46 231 128 -14 46 75 l 46 742 b 278 986 46 897 128 986 b 510 742 428 986 510 897 l 510 231 b 278 -14 510 75 428 -14 m 278 125 b 357 221 326 125 357 151 l 357 751 b 278 847 357 821 326 847 b 199 751 229 847 199 821 l 199 221 b 278 125 199 151 229 125 "},"1":{"ha":556,"x_min":0,"x_max":0,"o":"m 271 742 l 111 742 l 111 850 b 321 972 240 850 286 878 l 424 972 l 424 0 l 271 0 "},"2":{"ha":556,"x_min":0,"x_max":0,"o":"m 54 106 b 207 449 54 244 93 329 b 357 736 324 572 357 646 b 278 847 357 824 326 847 b 199 751 229 847 199 821 l 199 647 l 54 647 l 54 742 b 282 986 54 897 132 986 b 510 742 432 986 510 897 b 321 374 510 626 463 524 b 206 160 229 276 206 228 l 206 139 l 496 139 l 496 0 l 54 0 "},"3":{"ha":556,"x_min":0,"x_max":0,"o":"m 274 -14 b 46 228 124 -14 46 72 l 46 307 l 190 307 l 190 221 b 269 125 190 151 221 125 b 349 235 318 125 349 149 l 349 314 b 249 438 349 404 318 438 l 197 438 l 197 576 l 253 576 b 344 679 310 576 344 601 l 344 750 b 268 847 344 819 313 847 b 194 757 224 847 194 821 l 194 693 l 50 693 l 50 744 b 274 986 50 900 128 986 b 497 746 419 986 497 901 l 497 711 b 389 515 497 607 464 543 l 389 513 b 501 313 471 482 501 411 l 501 226 b 274 -14 501 71 424 -14 "},"4":{"ha":556,"x_min":0,"x_max":0,"o":"m 313 176 l 21 176 l 21 315 l 299 972 l 465 972 l 465 315 l 538 315 l 538 176 l 465 176 l 465 0 l 313 0 m 313 315 l 313 694 l 310 694 l 160 315 "},"5":{"ha":556,"x_min":0,"x_max":0,"o":"m 281 -14 b 53 231 131 -14 53 75 l 53 307 l 197 307 l 197 219 b 276 125 197 150 228 125 b 356 219 325 125 356 150 l 356 438 b 276 533 356 507 325 533 b 197 438 228 533 197 507 l 197 429 l 53 429 l 81 972 l 483 972 l 483 833 l 217 833 l 204 601 l 207 601 b 339 672 235 647 278 672 b 508 450 451 672 508 593 l 508 231 b 281 -14 508 75 431 -14 "},"6":{"ha":556,"x_min":0,"x_max":0,"o":"m 282 -14 b 50 231 132 -14 50 75 l 50 733 b 283 986 50 897 125 986 b 511 742 433 986 511 897 l 511 724 l 367 724 l 367 751 b 288 847 367 821 336 847 b 203 728 233 847 203 821 l 203 542 l 206 542 b 344 626 232 597 276 626 b 514 404 457 626 514 547 l 514 231 b 282 -14 514 75 432 -14 m 282 125 b 361 219 335 125 361 156 l 361 392 b 282 488 361 457 335 488 b 203 392 229 488 203 457 l 203 219 b 282 125 203 156 229 125 "},"7":{"ha":556,"x_min":0,"x_max":0,"o":"m 356 833 l 47 833 l 47 972 l 506 972 l 506 839 l 267 0 l 111 0 "},"8":{"ha":556,"x_min":0,"x_max":0,"o":"m 278 -14 b 39 226 124 -14 39 71 l 39 313 b 139 511 39 406 67 474 l 139 514 b 44 706 75 549 44 610 l 44 746 b 278 986 44 901 129 986 b 511 746 426 986 511 901 l 511 706 b 417 514 511 610 479 549 l 417 511 b 517 313 489 474 517 406 l 517 226 b 278 -14 517 71 432 -14 m 278 576 b 358 674 331 576 358 610 l 358 750 b 278 847 358 814 331 847 b 197 750 225 847 197 814 l 197 674 b 278 576 197 610 225 576 m 278 125 b 364 235 335 125 364 161 l 364 328 b 278 438 364 401 335 438 b 192 328 221 438 192 401 l 192 235 b 278 125 192 161 221 125 "},"9":{"ha":556,"x_min":0,"x_max":0,"o":"m 272 -14 b 44 231 122 -14 44 75 l 44 249 l 189 249 l 189 221 b 268 125 189 151 219 125 b 353 244 322 125 353 151 l 353 431 l 350 431 b 211 346 324 375 279 346 b 42 568 99 346 42 425 l 42 742 b 274 986 42 897 124 986 b 506 742 424 986 506 897 l 506 239 b 272 -14 506 75 431 -14 m 274 485 b 353 581 326 485 353 515 l 353 753 b 274 847 353 817 326 847 b 194 753 221 847 194 817 l 194 581 b 274 485 194 515 221 485 "}," ":{"ha":222,"x_min":0,"x_max":0,"o":""},"A":{"ha":557,"x_min":0,"x_max":0,"o":"m 175 972 l 382 972 l 540 0 l 388 0 l 360 193 l 360 190 l 186 190 l 158 0 l 17 0 m 342 322 l 274 803 l 271 803 l 204 322 "},"Á":{"ha":557,"x_min":0,"x_max":0,"o":"m 293 1197 l 460 1197 l 311 1038 l 196 1038 m 175 972 l 382 972 l 540 0 l 388 0 l 360 193 l 360 190 l 186 190 l 158 0 l 17 0 m 342 322 l 274 803 l 271 803 l 204 322 "},"Ă":{"ha":557,"x_min":0,"x_max":0,"o":"m 278 1032 b 115 1197 174 1032 119 1094 l 206 1197 b 278 1131 213 1144 239 1131 b 353 1197 318 1131 346 1144 l 443 1197 b 278 1032 440 1094 382 1032 m 175 972 l 382 972 l 540 0 l 388 0 l 360 193 l 360 190 l 186 190 l 158 0 l 17 0 m 342 322 l 274 803 l 271 803 l 204 322 "},"Â":{"ha":557,"x_min":0,"x_max":0,"o":"m 207 1197 l 351 1197 l 465 1038 l 350 1038 l 279 1114 l 208 1038 l 93 1038 m 175 972 l 382 972 l 540 0 l 388 0 l 360 193 l 360 190 l 186 190 l 158 0 l 17 0 m 342 322 l 274 803 l 271 803 l 204 322 "},"Ä":{"ha":557,"x_min":0,"x_max":0,"o":"m 104 1179 l 240 1179 l 240 1038 l 104 1038 m 318 1179 l 454 1179 l 454 1038 l 318 1038 m 175 972 l 382 972 l 540 0 l 388 0 l 360 193 l 360 190 l 186 190 l 158 0 l 17 0 m 342 322 l 274 803 l 271 803 l 204 322 "},"À":{"ha":557,"x_min":0,"x_max":0,"o":"m 99 1197 l 265 1197 l 363 1038 l 247 1038 m 175 972 l 382 972 l 540 0 l 388 0 l 360 193 l 360 190 l 186 190 l 158 0 l 17 0 m 342 322 l 274 803 l 271 803 l 204 322 "},"Ā":{"ha":557,"x_min":0,"x_max":0,"o":"m 119 1158 l 439 1158 l 439 1050 l 119 1050 m 175 972 l 382 972 l 540 0 l 388 0 l 360 193 l 360 190 l 186 190 l 158 0 l 17 0 m 342 322 l 274 803 l 271 803 l 204 322 "},"Ą":{"ha":557,"x_min":0,"x_max":0,"o":"m 442 -81 b 490 -119 442 -107 465 -119 b 540 -111 518 -119 525 -115 l 540 -189 b 446 -204 508 -201 485 -204 b 324 -118 371 -204 324 -175 b 418 0 324 -74 354 -32 l 388 0 l 360 193 l 360 190 l 186 190 l 158 0 l 17 0 l 175 972 l 382 972 l 540 0 l 483 0 b 442 -81 449 -29 442 -61 m 342 322 l 274 803 l 271 803 l 204 322 "},"Å":{"ha":557,"x_min":0,"x_max":0,"o":"m 279 1022 b 156 1144 208 1022 156 1076 b 279 1267 156 1213 208 1267 b 403 1144 350 1267 403 1213 b 279 1022 403 1076 350 1022 m 279 1096 b 324 1144 304 1096 324 1115 b 279 1193 324 1174 304 1193 b 235 1144 254 1193 235 1174 b 279 1096 235 1115 254 1096 m 175 972 l 382 972 l 540 0 l 388 0 l 360 193 l 360 190 l 186 190 l 158 0 l 17 0 m 342 322 l 274 803 l 271 803 l 204 322 "},"Ã":{"ha":557,"x_min":0,"x_max":0,"o":"m 86 1076 b 213 1193 121 1154 160 1193 b 296 1167 250 1193 275 1179 b 343 1149 313 1157 326 1149 b 399 1203 365 1149 381 1164 l 472 1158 b 346 1042 438 1081 399 1042 b 263 1068 308 1042 283 1056 b 215 1086 246 1078 232 1086 b 160 1032 193 1086 178 1071 m 175 972 l 382 972 l 540 0 l 388 0 l 360 193 l 360 190 l 186 190 l 158 0 l 17 0 m 342 322 l 274 803 l 271 803 l 204 322 "},"Æ":{"ha":806,"x_min":0,"x_max":0,"o":"m 274 972 l 775 972 l 775 833 l 511 833 l 511 576 l 721 576 l 721 438 l 511 438 l 511 139 l 775 139 l 775 0 l 358 0 l 358 190 l 208 190 l 160 0 l 14 0 m 358 322 l 358 785 l 356 785 l 242 322 "},"Ǽ":{"ha":806,"x_min":0,"x_max":0,"o":"m 414 1197 l 581 1197 l 432 1038 l 317 1038 m 274 972 l 775 972 l 775 833 l 511 833 l 511 576 l 721 576 l 721 438 l 511 438 l 511 139 l 775 139 l 775 0 l 358 0 l 358 190 l 208 190 l 160 0 l 14 0 m 358 322 l 358 785 l 356 785 l 242 322 "},"B":{"ha":561,"x_min":0,"x_max":0,"o":"m 57 972 l 288 972 b 514 749 446 972 514 899 l 514 710 b 415 519 514 610 483 547 l 415 517 b 529 314 497 489 529 417 l 529 231 b 297 0 529 81 450 0 l 57 0 m 269 576 b 361 679 326 576 361 601 l 361 733 b 283 833 361 803 338 833 l 210 833 l 210 576 m 297 139 b 376 235 349 139 376 163 l 376 319 b 278 438 376 410 347 438 l 210 438 l 210 139 "},"Ḃ":{"ha":561,"x_min":0,"x_max":0,"o":"m 196 1179 l 335 1179 l 335 1038 l 196 1038 m 57 972 l 288 972 b 514 749 446 972 514 899 l 514 710 b 415 519 514 610 483 547 l 415 517 b 529 314 497 489 529 417 l 529 231 b 297 0 529 81 450 0 l 57 0 m 269 576 b 361 679 326 576 361 601 l 361 733 b 283 833 361 803 338 833 l 210 833 l 210 576 m 297 139 b 376 235 349 139 376 163 l 376 319 b 278 438 376 410 347 438 l 210 438 l 210 139 "},"C":{"ha":532,"x_min":0,"x_max":0,"o":"m 272 -14 b 47 225 125 -14 47 75 l 47 747 b 272 986 47 897 125 986 b 497 747 419 986 497 897 l 497 644 l 353 644 l 353 757 b 276 847 353 821 322 847 b 200 757 231 847 200 821 l 200 214 b 276 125 200 150 231 125 b 353 214 322 125 353 150 l 353 363 l 497 363 l 497 225 b 272 -14 497 75 419 -14 "},"Ć":{"ha":532,"x_min":0,"x_max":0,"o":"m 282 1197 l 449 1197 l 300 1038 l 185 1038 m 272 -14 b 47 225 125 -14 47 75 l 47 747 b 272 986 47 897 125 986 b 497 747 419 986 497 897 l 497 644 l 353 644 l 353 757 b 276 847 353 821 322 847 b 200 757 231 847 200 821 l 200 214 b 276 125 200 150 231 125 b 353 214 322 125 353 150 l 353 363 l 497 363 l 497 225 b 272 -14 497 75 419 -14 "},"Č":{"ha":532,"x_min":0,"x_max":0,"o":"m 82 1197 l 197 1197 l 268 1121 l 339 1197 l 454 1197 l 340 1038 l 196 1038 m 272 -14 b 47 225 125 -14 47 75 l 47 747 b 272 986 47 897 125 986 b 497 747 419 986 497 897 l 497 644 l 353 644 l 353 757 b 276 847 353 821 322 847 b 200 757 231 847 200 821 l 200 214 b 276 125 200 150 231 125 b 353 214 322 125 353 150 l 353 363 l 497 363 l 497 225 b 272 -14 497 75 419 -14 "},"Ç":{"ha":532,"x_min":0,"x_max":0,"o":"m 353 644 l 353 757 b 276 847 353 821 322 847 b 200 757 231 847 200 821 l 200 214 b 276 125 200 150 231 125 b 353 214 322 125 353 150 l 353 363 l 497 363 l 497 225 b 308 -12 497 88 432 1 l 308 -54 b 404 -119 369 -54 404 -71 b 263 -204 404 -194 346 -204 b 129 -124 186 -204 129 -187 l 129 -110 l 232 -110 l 232 -121 b 263 -149 232 -142 247 -149 b 299 -115 288 -149 299 -139 b 247 -79 299 -89 282 -79 l 240 -79 l 240 -12 b 47 225 114 0 47 86 l 47 747 b 272 986 47 897 125 986 b 497 747 419 986 497 897 l 497 644 "},"Ĉ":{"ha":532,"x_min":0,"x_max":0,"o":"m 196 1197 l 340 1197 l 454 1038 l 339 1038 l 268 1114 l 197 1038 l 82 1038 m 272 -14 b 47 225 125 -14 47 75 l 47 747 b 272 986 47 897 125 986 b 497 747 419 986 497 897 l 497 644 l 353 644 l 353 757 b 276 847 353 821 322 847 b 200 757 231 847 200 821 l 200 214 b 276 125 200 150 231 125 b 353 214 322 125 353 150 l 353 363 l 497 363 l 497 225 b 272 -14 497 75 419 -14 "},"Ċ":{"ha":532,"x_min":0,"x_max":0,"o":"m 199 1179 l 338 1179 l 338 1038 l 199 1038 m 272 -14 b 47 225 125 -14 47 75 l 47 747 b 272 986 47 897 125 986 b 497 747 419 986 497 897 l 497 644 l 353 644 l 353 757 b 276 847 353 821 322 847 b 200 757 231 847 200 821 l 200 214 b 276 125 200 150 231 125 b 353 214 322 125 353 150 l 353 363 l 497 363 l 497 225 b 272 -14 497 75 419 -14 "},"D":{"ha":564,"x_min":0,"x_max":0,"o":"m 57 972 l 290 972 b 518 732 443 972 518 888 l 518 240 b 290 0 518 85 443 0 l 57 0 m 288 139 b 365 233 336 139 365 164 l 365 739 b 288 833 365 808 336 833 l 210 833 l 210 139 "},"Ð":{"ha":588,"x_min":0,"x_max":0,"o":"m 314 972 b 542 732 467 972 542 888 l 542 240 b 314 0 542 85 467 0 l 81 0 l 81 442 l 14 442 l 14 572 l 81 572 l 81 972 l 314 972 m 389 739 b 311 833 389 808 360 833 l 233 833 l 233 572 l 311 572 l 311 442 l 233 442 l 233 139 l 311 139 b 389 233 360 139 389 164 "},"Ď":{"ha":564,"x_min":0,"x_max":0,"o":"m 85 1197 l 200 1197 l 271 1121 l 342 1197 l 457 1197 l 343 1038 l 199 1038 m 57 972 l 290 972 b 518 732 443 972 518 888 l 518 240 b 290 0 518 85 443 0 l 57 0 m 288 139 b 365 233 336 139 365 164 l 365 739 b 288 833 365 808 336 833 l 210 833 l 210 139 "},"Đ":{"ha":588,"x_min":0,"x_max":0,"o":"m 314 972 b 542 732 467 972 542 888 l 542 240 b 314 0 542 85 467 0 l 81 0 l 81 442 l 14 442 l 14 572 l 81 572 l 81 972 l 314 972 m 389 739 b 311 833 389 808 360 833 l 233 833 l 233 572 l 311 572 l 311 442 l 233 442 l 233 139 l 311 139 b 389 233 360 139 389 164 "},"Ḋ":{"ha":564,"x_min":0,"x_max":0,"o":"m 201 1179 l 340 1179 l 340 1038 l 201 1038 m 57 972 l 290 972 b 518 732 443 972 518 888 l 518 240 b 290 0 518 85 443 0 l 57 0 m 288 139 b 365 233 336 139 365 164 l 365 739 b 288 833 365 808 336 833 l 210 833 l 210 139 "},"E":{"ha":504,"x_min":0,"x_max":0,"o":"m 57 972 l 474 972 l 474 833 l 210 833 l 210 576 l 419 576 l 419 438 l 210 438 l 210 139 l 474 139 l 474 0 l 57 0 "},"É":{"ha":504,"x_min":0,"x_max":0,"o":"m 279 1197 l 446 1197 l 297 1038 l 182 1038 m 57 972 l 474 972 l 474 833 l 210 833 l 210 576 l 419 576 l 419 438 l 210 438 l 210 139 l 474 139 l 474 0 l 57 0 "},"Ĕ":{"ha":504,"x_min":0,"x_max":0,"o":"m 264 1032 b 101 1197 160 1032 106 1094 l 192 1197 b 264 1131 199 1144 225 1131 b 339 1197 304 1131 332 1144 l 429 1197 b 264 1032 426 1094 368 1032 m 57 972 l 474 972 l 474 833 l 210 833 l 210 576 l 419 576 l 419 438 l 210 438 l 210 139 l 474 139 l 474 0 l 57 0 "},"Ě":{"ha":504,"x_min":0,"x_max":0,"o":"m 79 1197 l 194 1197 l 265 1121 l 336 1197 l 451 1197 l 338 1038 l 193 1038 m 57 972 l 474 972 l 474 833 l 210 833 l 210 576 l 419 576 l 419 438 l 210 438 l 210 139 l 474 139 l 474 0 l 57 0 "},"Ê":{"ha":504,"x_min":0,"x_max":0,"o":"m 193 1197 l 338 1197 l 451 1038 l 336 1038 l 265 1114 l 194 1038 l 79 1038 m 57 972 l 474 972 l 474 833 l 210 833 l 210 576 l 419 576 l 419 438 l 210 438 l 210 139 l 474 139 l 474 0 l 57 0 "},"Ë":{"ha":504,"x_min":0,"x_max":0,"o":"m 90 1179 l 226 1179 l 226 1038 l 90 1038 m 304 1179 l 440 1179 l 440 1038 l 304 1038 m 57 972 l 474 972 l 474 833 l 210 833 l 210 576 l 419 576 l 419 438 l 210 438 l 210 139 l 474 139 l 474 0 l 57 0 "},"Ė":{"ha":504,"x_min":0,"x_max":0,"o":"m 196 1179 l 335 1179 l 335 1038 l 196 1038 m 57 972 l 474 972 l 474 833 l 210 833 l 210 576 l 419 576 l 419 438 l 210 438 l 210 139 l 474 139 l 474 0 l 57 0 "},"È":{"ha":504,"x_min":0,"x_max":0,"o":"m 85 1197 l 251 1197 l 349 1038 l 233 1038 m 57 972 l 474 972 l 474 833 l 210 833 l 210 576 l 419 576 l 419 438 l 210 438 l 210 139 l 474 139 l 474 0 l 57 0 "},"Ē":{"ha":504,"x_min":0,"x_max":0,"o":"m 106 1158 l 425 1158 l 425 1050 l 106 1050 m 57 972 l 474 972 l 474 833 l 210 833 l 210 576 l 419 576 l 419 438 l 210 438 l 210 139 l 474 139 l 474 0 l 57 0 "},"Ę":{"ha":504,"x_min":0,"x_max":0,"o":"m 210 833 l 210 576 l 419 576 l 419 438 l 210 438 l 210 139 l 474 139 l 474 0 l 417 0 b 375 -81 382 -29 375 -61 b 424 -119 375 -107 399 -119 b 474 -111 451 -119 458 -115 l 474 -189 b 379 -204 442 -201 418 -204 b 257 -118 304 -204 257 -175 b 351 0 257 -74 288 -32 l 57 0 l 57 972 l 474 972 l 474 833 "},"F":{"ha":478,"x_min":0,"x_max":0,"o":"m 57 972 l 461 972 l 461 833 l 210 833 l 210 563 l 407 563 l 407 424 l 210 424 l 210 0 l 57 0 "},"Ḟ":{"ha":478,"x_min":0,"x_max":0,"o":"m 185 1179 l 324 1179 l 324 1038 l 185 1038 m 57 972 l 461 972 l 461 833 l 210 833 l 210 563 l 407 563 l 407 424 l 210 424 l 210 0 l 57 0 "},"G":{"ha":543,"x_min":0,"x_max":0,"o":"m 274 -14 b 46 231 124 -14 46 75 l 46 742 b 274 986 46 897 124 986 b 501 742 424 986 501 897 l 501 658 l 357 658 l 357 751 b 278 847 357 821 326 847 b 199 751 229 847 199 821 l 199 219 b 278 125 199 150 229 125 b 357 219 326 125 357 150 l 357 410 l 281 410 l 281 549 l 501 549 l 501 231 b 274 -14 501 75 424 -14 "},"Ğ":{"ha":543,"x_min":0,"x_max":0,"o":"m 272 1032 b 110 1197 168 1032 114 1094 l 200 1197 b 272 1131 207 1144 233 1131 b 347 1197 313 1131 340 1144 l 438 1197 b 272 1032 435 1094 376 1032 m 274 -14 b 46 231 124 -14 46 75 l 46 742 b 274 986 46 897 124 986 b 501 742 424 986 501 897 l 501 658 l 357 658 l 357 751 b 278 847 357 821 326 847 b 199 751 229 847 199 821 l 199 219 b 278 125 199 150 229 125 b 357 219 326 125 357 150 l 357 410 l 281 410 l 281 549 l 501 549 l 501 231 b 274 -14 501 75 424 -14 "},"Ĝ":{"ha":543,"x_min":0,"x_max":0,"o":"m 201 1197 l 346 1197 l 460 1038 l 344 1038 l 274 1114 l 203 1038 l 88 1038 m 274 -14 b 46 231 124 -14 46 75 l 46 742 b 274 986 46 897 124 986 b 501 742 424 986 501 897 l 501 658 l 357 658 l 357 751 b 278 847 357 821 326 847 b 199 751 229 847 199 821 l 199 219 b 278 125 199 150 229 125 b 357 219 326 125 357 150 l 357 410 l 281 410 l 281 549 l 501 549 l 501 231 b 274 -14 501 75 424 -14 "},"Ģ":{"ha":543,"x_min":0,"x_max":0,"o":"m 274 -14 b 46 231 124 -14 46 75 l 46 742 b 274 986 46 897 124 986 b 501 742 424 986 501 897 l 501 658 l 357 658 l 357 751 b 278 847 357 821 326 847 b 199 751 229 847 199 821 l 199 219 b 278 125 199 150 229 125 b 357 219 326 125 357 150 l 357 410 l 281 410 l 281 549 l 501 549 l 501 231 b 274 -14 501 75 424 -14 m 258 -187 l 208 -187 l 208 -60 l 336 -60 l 336 -174 l 276 -262 l 222 -262 "},"Ġ":{"ha":543,"x_min":0,"x_max":0,"o":"m 204 1179 l 343 1179 l 343 1038 l 204 1038 m 274 -14 b 46 231 124 -14 46 75 l 46 742 b 274 986 46 897 124 986 b 501 742 424 986 501 897 l 501 658 l 357 658 l 357 751 b 278 847 357 821 326 847 b 199 751 229 847 199 821 l 199 219 b 278 125 199 150 229 125 b 357 219 326 125 357 150 l 357 410 l 281 410 l 281 549 l 501 549 l 501 231 b 274 -14 501 75 424 -14 "},"H":{"ha":583,"x_min":0,"x_max":0,"o":"m 57 972 l 210 972 l 210 576 l 374 576 l 374 972 l 526 972 l 526 0 l 374 0 l 374 438 l 210 438 l 210 0 l 57 0 "},"Ħ":{"ha":608,"x_min":0,"x_max":0,"o":"m 594 713 l 539 713 l 539 0 l 386 0 l 386 438 l 222 438 l 222 0 l 69 0 l 69 713 l 14 713 l 14 838 l 69 838 l 69 972 l 222 972 l 222 838 l 386 838 l 386 972 l 539 972 l 539 838 l 594 838 m 386 713 l 222 713 l 222 576 l 386 576 "},"Ĥ":{"ha":583,"x_min":0,"x_max":0,"o":"m 219 1197 l 364 1197 l 478 1038 l 363 1038 l 292 1114 l 221 1038 l 106 1038 m 57 972 l 210 972 l 210 576 l 374 576 l 374 972 l 526 972 l 526 0 l 374 0 l 374 438 l 210 438 l 210 0 l 57 0 "},"I":{"ha":267,"x_min":0,"x_max":0,"o":"m 57 972 l 210 972 l 210 0 l 57 0 "},"Ĳ":{"ha":635,"x_min":0,"x_max":0,"o":"m 57 972 l 210 972 l 210 0 l 57 0 m 360 -6 b 289 0 332 -6 311 -4 l 289 139 b 339 133 306 135 322 133 b 429 226 400 133 429 163 l 429 972 l 582 972 l 582 231 b 360 -6 582 71 510 -6 "},"Í":{"ha":267,"x_min":0,"x_max":0,"o":"m 147 1197 l 314 1197 l 165 1038 l 50 1038 m 57 972 l 210 972 l 210 0 l 57 0 "},"Ĭ":{"ha":267,"x_min":0,"x_max":0,"o":"m 132 1032 b -31 1197 28 1032 -26 1094 l 60 1197 b 132 1131 67 1144 93 1131 b 207 1197 172 1131 200 1144 l 297 1197 b 132 1032 294 1094 236 1032 m 57 972 l 210 972 l 210 0 l 57 0 "},"Î":{"ha":267,"x_min":0,"x_max":0,"o":"m 61 1197 l 206 1197 l 319 1038 l 204 1038 l 133 1114 l 63 1038 l -53 1038 m 57 972 l 210 972 l 210 0 l 57 0 "},"Ï":{"ha":267,"x_min":0,"x_max":0,"o":"m -42 1179 l 94 1179 l 94 1038 l -42 1038 m 172 1179 l 308 1179 l 308 1038 l 172 1038 m 57 972 l 210 972 l 210 0 l 57 0 "},"İ":{"ha":267,"x_min":0,"x_max":0,"o":"m 64 1179 l 203 1179 l 203 1038 l 64 1038 m 57 972 l 210 972 l 210 0 l 57 0 "},"Ì":{"ha":267,"x_min":0,"x_max":0,"o":"m -47 1197 l 119 1197 l 217 1038 l 101 1038 m 57 972 l 210 972 l 210 0 l 57 0 "},"Ī":{"ha":267,"x_min":0,"x_max":0,"o":"m -26 1158 l 293 1158 l 293 1050 l -26 1050 m 57 972 l 210 972 l 210 0 l 57 0 "},"Į":{"ha":267,"x_min":0,"x_max":0,"o":"m 190 -119 b 240 -111 218 -119 225 -115 l 240 -189 b 146 -204 208 -201 185 -204 b 24 -118 71 -204 24 -175 b 118 0 24 -74 54 -32 l 57 0 l 57 972 l 210 972 l 210 0 l 183 0 b 142 -81 149 -29 142 -61 b 190 -119 142 -107 165 -119 "},"Ĩ":{"ha":267,"x_min":0,"x_max":0,"o":"m -60 1076 b 67 1193 -25 1154 14 1193 b 150 1167 104 1193 129 1179 b 197 1149 167 1157 181 1149 b 253 1203 219 1149 235 1164 l 326 1158 b 200 1042 292 1081 253 1042 b 117 1068 163 1042 138 1056 b 69 1086 100 1078 86 1086 b 14 1032 47 1086 32 1071 m 57 972 l 210 972 l 210 0 l 57 0 "},"J":{"ha":368,"x_min":0,"x_max":0,"o":"m 93 -6 b 22 0 65 -6 44 -4 l 22 139 b 72 133 39 135 56 133 b 163 226 133 133 163 163 l 163 972 l 315 972 l 315 231 b 93 -6 315 71 243 -6 "},"Ĵ":{"ha":368,"x_min":0,"x_max":0,"o":"m 146 1197 l 290 1197 l 404 1038 l 289 1038 l 218 1114 l 147 1038 l 32 1038 m 93 -6 b 22 0 65 -6 44 -4 l 22 139 b 72 133 39 135 56 133 b 163 226 133 133 163 163 l 163 972 l 315 972 l 315 231 b 93 -6 315 71 243 -6 "},"K":{"ha":575,"x_min":0,"x_max":0,"o":"m 57 972 l 210 972 l 210 563 l 404 972 l 557 972 l 375 615 l 560 0 l 400 0 l 271 433 l 210 310 l 210 0 l 57 0 "},"Ķ":{"ha":575,"x_min":0,"x_max":0,"o":"m 57 972 l 210 972 l 210 563 l 404 972 l 557 972 l 375 615 l 560 0 l 400 0 l 271 433 l 210 310 l 210 0 l 57 0 m 288 -187 l 238 -187 l 238 -60 l 365 -60 l 365 -174 l 306 -262 l 251 -262 "},"L":{"ha":478,"x_min":0,"x_max":0,"o":"m 57 972 l 210 972 l 210 139 l 461 139 l 461 0 l 57 0 "},"Ĺ":{"ha":478,"x_min":0,"x_max":0,"o":"m 161 1197 l 328 1197 l 179 1038 l 64 1038 m 57 972 l 210 972 l 210 139 l 461 139 l 461 0 l 57 0 "},"Ľ":{"ha":478,"x_min":0,"x_max":0,"o":"m 57 972 l 210 972 l 210 139 l 461 139 l 461 0 l 57 0 m 346 831 l 290 831 l 290 972 l 432 972 l 432 846 l 368 686 l 306 686 "},"Ļ":{"ha":478,"x_min":0,"x_max":0,"o":"m 57 972 l 210 972 l 210 139 l 461 139 l 461 0 l 57 0 m 246 -187 l 196 -187 l 196 -60 l 324 -60 l 324 -174 l 264 -262 l 210 -262 "},"Ŀ":{"ha":476,"x_min":0,"x_max":0,"o":"m 57 972 l 210 972 l 210 139 l 461 139 l 461 0 l 57 0 m 297 560 l 444 560 l 444 413 l 297 413 "},"Ł":{"ha":506,"x_min":0,"x_max":0,"o":"m 489 139 l 489 0 l 85 0 l 85 222 l 14 146 l 14 313 l 85 389 l 85 972 l 238 972 l 238 553 l 403 729 l 403 563 l 238 386 l 238 139 "},"M":{"ha":747,"x_min":0,"x_max":0,"o":"m 57 972 l 275 972 l 372 276 l 375 276 l 472 972 l 690 972 l 690 0 l 546 0 l 546 736 l 543 736 l 432 0 l 304 0 l 193 736 l 190 736 l 190 0 l 57 0 "},"Ṁ":{"ha":747,"x_min":0,"x_max":0,"o":"m 304 1179 l 443 1179 l 443 1038 l 304 1038 m 57 972 l 275 972 l 372 276 l 375 276 l 472 972 l 690 972 l 690 0 l 546 0 l 546 736 l 543 736 l 432 0 l 304 0 l 193 736 l 190 736 l 190 0 l 57 0 "},"N":{"ha":593,"x_min":0,"x_max":0,"o":"m 57 972 l 249 972 l 397 390 l 400 390 l 400 972 l 536 972 l 536 0 l 379 0 l 196 710 l 193 710 l 193 0 l 57 0 "},"Ń":{"ha":593,"x_min":0,"x_max":0,"o":"m 311 1197 l 478 1197 l 329 1038 l 214 1038 m 57 972 l 249 972 l 397 390 l 400 390 l 400 972 l 536 972 l 536 0 l 379 0 l 196 710 l 193 710 l 193 0 l 57 0 "},"Ň":{"ha":593,"x_min":0,"x_max":0,"o":"m 111 1197 l 226 1197 l 297 1121 l 368 1197 l 483 1197 l 369 1038 l 225 1038 m 57 972 l 249 972 l 397 390 l 400 390 l 400 972 l 536 972 l 536 0 l 379 0 l 196 710 l 193 710 l 193 0 l 57 0 "},"Ņ":{"ha":593,"x_min":0,"x_max":0,"o":"m 57 972 l 249 972 l 397 390 l 400 390 l 400 972 l 536 972 l 536 0 l 379 0 l 196 710 l 193 710 l 193 0 l 57 0 m 283 -187 l 233 -187 l 233 -60 l 361 -60 l 361 -174 l 301 -262 l 247 -262 "},"Ŋ":{"ha":593,"x_min":0,"x_max":0,"o":"m 331 -236 b 263 -231 306 -236 285 -235 l 263 -99 b 317 -104 279 -103 296 -104 b 389 -25 353 -104 389 -85 b 375 64 389 6 386 25 l 196 726 l 193 726 l 193 0 l 57 0 l 57 972 l 249 972 l 397 422 l 400 422 l 400 972 l 536 972 l 536 -3 b 331 -236 536 -160 464 -236 "},"Ñ":{"ha":593,"x_min":0,"x_max":0,"o":"m 104 1076 b 231 1193 139 1154 178 1193 b 314 1167 268 1193 293 1179 b 361 1149 331 1157 344 1149 b 417 1203 383 1149 399 1164 l 490 1158 b 364 1042 456 1081 417 1042 b 281 1068 326 1042 301 1056 b 233 1086 264 1078 250 1086 b 178 1032 211 1086 196 1071 m 57 972 l 249 972 l 397 390 l 400 390 l 400 972 l 536 972 l 536 0 l 379 0 l 196 710 l 193 710 l 193 0 l 57 0 "},"O":{"ha":556,"x_min":0,"x_max":0,"o":"m 278 -14 b 46 231 128 -14 46 75 l 46 742 b 278 986 46 897 128 986 b 510 742 428 986 510 897 l 510 231 b 278 -14 510 75 428 -14 m 278 125 b 357 221 326 125 357 151 l 357 751 b 278 847 357 821 326 847 b 199 751 229 847 199 821 l 199 221 b 278 125 199 151 229 125 "},"Ó":{"ha":556,"x_min":0,"x_max":0,"o":"m 292 1197 l 458 1197 l 310 1038 l 194 1038 m 278 -14 b 46 231 128 -14 46 75 l 46 742 b 278 986 46 897 128 986 b 510 742 428 986 510 897 l 510 231 b 278 -14 510 75 428 -14 m 278 125 b 357 221 326 125 357 151 l 357 751 b 278 847 357 821 326 847 b 199 751 229 847 199 821 l 199 221 b 278 125 199 151 229 125 "},"Ŏ":{"ha":556,"x_min":0,"x_max":0,"o":"m 276 1032 b 114 1197 172 1032 118 1094 l 204 1197 b 276 1131 211 1144 238 1131 b 351 1197 317 1131 344 1144 l 442 1197 b 276 1032 439 1094 381 1032 m 278 -14 b 46 231 128 -14 46 75 l 46 742 b 278 986 46 897 128 986 b 510 742 428 986 510 897 l 510 231 b 278 -14 510 75 428 -14 m 278 125 b 357 221 326 125 357 151 l 357 751 b 278 847 357 821 326 847 b 199 751 229 847 199 821 l 199 221 b 278 125 199 151 229 125 "},"Ô":{"ha":556,"x_min":0,"x_max":0,"o":"m 206 1197 l 350 1197 l 464 1038 l 349 1038 l 278 1114 l 207 1038 l 92 1038 m 278 -14 b 46 231 128 -14 46 75 l 46 742 b 278 986 46 897 128 986 b 510 742 428 986 510 897 l 510 231 b 278 -14 510 75 428 -14 m 278 125 b 357 221 326 125 357 151 l 357 751 b 278 847 357 821 326 847 b 199 751 229 847 199 821 l 199 221 b 278 125 199 151 229 125 "},"Ö":{"ha":556,"x_min":0,"x_max":0,"o":"m 103 1179 l 239 1179 l 239 1038 l 103 1038 m 317 1179 l 453 1179 l 453 1038 l 317 1038 m 278 -14 b 46 231 128 -14 46 75 l 46 742 b 278 986 46 897 128 986 b 510 742 428 986 510 897 l 510 231 b 278 -14 510 75 428 -14 m 278 125 b 357 221 326 125 357 151 l 357 751 b 278 847 357 821 326 847 b 199 751 229 847 199 821 l 199 221 b 278 125 199 151 229 125 "},"Ò":{"ha":556,"x_min":0,"x_max":0,"o":"m 97 1197 l 264 1197 l 361 1038 l 246 1038 m 278 -14 b 46 231 128 -14 46 75 l 46 742 b 278 986 46 897 128 986 b 510 742 428 986 510 897 l 510 231 b 278 -14 510 75 428 -14 m 278 125 b 357 221 326 125 357 151 l 357 751 b 278 847 357 821 326 847 b 199 751 229 847 199 821 l 199 221 b 278 125 199 151 229 125 "},"Ő":{"ha":556,"x_min":0,"x_max":0,"o":"m 189 1197 l 343 1197 l 199 1038 l 92 1038 m 396 1197 l 550 1197 l 406 1038 l 299 1038 m 278 -14 b 46 231 128 -14 46 75 l 46 742 b 278 986 46 897 128 986 b 510 742 428 986 510 897 l 510 231 b 278 -14 510 75 428 -14 m 278 125 b 357 221 326 125 357 151 l 357 751 b 278 847 357 821 326 847 b 199 751 229 847 199 821 l 199 221 b 278 125 199 151 229 125 "},"Ō":{"ha":556,"x_min":0,"x_max":0,"o":"m 118 1158 l 438 1158 l 438 1050 l 118 1050 m 278 -14 b 46 231 128 -14 46 75 l 46 742 b 278 986 46 897 128 986 b 510 742 428 986 510 897 l 510 231 b 278 -14 510 75 428 -14 m 278 125 b 357 221 326 125 357 151 l 357 751 b 278 847 357 821 326 847 b 199 751 229 847 199 821 l 199 221 b 278 125 199 151 229 125 "},"Ø":{"ha":556,"x_min":0,"x_max":0,"o":"m 483 874 b 510 742 501 838 510 793 l 510 231 b 278 -14 510 75 428 -14 b 139 22 222 -14 175 -1 l 115 -36 l 32 0 l 72 99 b 46 231 54 135 46 179 l 46 742 b 278 986 46 897 128 986 b 417 950 333 986 381 974 l 440 1008 l 524 972 m 199 411 l 353 792 b 278 847 343 832 315 847 b 199 751 229 847 199 821 m 357 561 l 203 181 b 278 125 213 140 240 125 b 357 221 326 125 357 151 "},"Ǿ":{"ha":556,"x_min":0,"x_max":0,"o":"m 310 1038 l 194 1038 l 292 1197 l 458 1197 m 483 874 b 510 742 501 838 510 793 l 510 231 b 278 -14 510 75 428 -14 b 139 22 222 -14 175 -1 l 115 -36 l 32 0 l 72 99 b 46 231 54 135 46 179 l 46 742 b 278 986 46 897 128 986 b 417 950 333 986 381 974 l 440 1008 l 524 972 m 199 411 l 353 792 b 278 847 343 832 315 847 b 199 751 229 847 199 821 m 357 561 l 203 181 b 278 125 213 140 240 125 b 357 221 326 125 357 151 "},"Õ":{"ha":556,"x_min":0,"x_max":0,"o":"m 85 1076 b 211 1193 119 1154 158 1193 b 294 1167 249 1193 274 1179 b 342 1149 311 1157 325 1149 b 397 1203 364 1149 379 1164 l 471 1158 b 344 1042 436 1081 397 1042 b 261 1068 307 1042 282 1056 b 214 1086 244 1078 231 1086 b 158 1032 192 1086 176 1071 m 278 -14 b 46 231 128 -14 46 75 l 46 742 b 278 986 46 897 128 986 b 510 742 428 986 510 897 l 510 231 b 278 -14 510 75 428 -14 m 278 125 b 357 221 326 125 357 151 l 357 751 b 278 847 357 821 326 847 b 199 751 229 847 199 821 l 199 221 b 278 125 199 151 229 125 "},"Œ":{"ha":801,"x_min":0,"x_max":0,"o":"m 274 0 b 46 240 121 0 46 85 l 46 732 b 274 972 46 888 121 972 l 771 972 l 771 833 l 507 833 l 507 576 l 717 576 l 717 438 l 507 438 l 507 139 l 771 139 l 771 0 l 274 0 m 354 139 l 354 833 l 276 833 b 199 739 228 833 199 808 l 199 233 b 276 139 199 164 228 139 "},"P":{"ha":536,"x_min":0,"x_max":0,"o":"m 57 972 l 282 972 b 510 732 435 972 510 888 l 510 636 b 282 396 510 481 435 396 l 210 396 l 210 0 l 57 0 m 282 535 b 357 626 331 535 357 557 l 357 742 b 282 833 357 811 331 833 l 210 833 l 210 535 "},"Ṗ":{"ha":536,"x_min":0,"x_max":0,"o":"m 196 1179 l 335 1179 l 335 1038 l 196 1038 m 57 972 l 282 972 b 510 732 435 972 510 888 l 510 636 b 282 396 510 481 435 396 l 210 396 l 210 0 l 57 0 m 282 535 b 357 626 331 535 357 557 l 357 742 b 282 833 357 811 331 833 l 210 833 l 210 535 "},"Þ":{"ha":536,"x_min":0,"x_max":0,"o":"m 57 972 l 210 972 l 210 835 l 282 835 b 510 594 435 835 510 750 l 510 499 b 282 258 510 343 435 258 l 210 258 l 210 0 l 57 0 m 282 397 b 357 489 331 397 357 419 l 357 604 b 282 696 357 674 331 696 l 210 696 l 210 397 "},"Q":{"ha":556,"x_min":0,"x_max":0,"o":"m 507 -90 b 379 3 450 -90 397 -69 b 278 -14 350 -8 315 -14 b 46 231 128 -14 46 75 l 46 742 b 278 986 46 897 128 986 b 510 742 428 986 510 897 l 510 231 b 467 71 510 164 494 111 b 524 49 478 51 496 49 l 547 49 l 547 -90 l 507 -90 m 278 125 b 357 221 326 125 357 151 l 357 751 b 278 847 357 821 326 847 b 199 751 229 847 199 821 l 199 221 b 278 125 199 151 229 125 "},"R":{"ha":560,"x_min":0,"x_max":0,"o":"m 57 972 l 283 972 b 510 749 442 972 510 899 l 510 689 b 410 497 510 589 478 525 l 410 494 b 511 289 486 471 511 399 l 511 118 b 528 0 511 71 513 36 l 372 0 b 358 119 364 25 358 40 l 358 297 b 263 417 358 388 332 417 l 210 417 l 210 0 l 57 0 m 265 556 b 357 658 322 556 357 581 l 357 733 b 279 833 357 803 333 833 l 210 833 l 210 556 "},"Ŕ":{"ha":560,"x_min":0,"x_max":0,"o":"m 282 1197 l 449 1197 l 300 1038 l 185 1038 m 57 972 l 283 972 b 510 749 442 972 510 899 l 510 689 b 410 497 510 589 478 525 l 410 494 b 511 289 486 471 511 399 l 511 118 b 528 0 511 71 513 36 l 372 0 b 358 119 364 25 358 40 l 358 297 b 263 417 358 388 332 417 l 210 417 l 210 0 l 57 0 m 265 556 b 357 658 322 556 357 581 l 357 733 b 279 833 357 803 333 833 l 210 833 l 210 556 "},"Ř":{"ha":560,"x_min":0,"x_max":0,"o":"m 82 1197 l 197 1197 l 268 1121 l 339 1197 l 454 1197 l 340 1038 l 196 1038 m 57 972 l 283 972 b 510 749 442 972 510 899 l 510 689 b 410 497 510 589 478 525 l 410 494 b 511 289 486 471 511 399 l 511 118 b 528 0 511 71 513 36 l 372 0 b 358 119 364 25 358 40 l 358 297 b 263 417 358 388 332 417 l 210 417 l 210 0 l 57 0 m 265 556 b 357 658 322 556 357 581 l 357 733 b 279 833 357 803 333 833 l 210 833 l 210 556 "},"Ŗ":{"ha":560,"x_min":0,"x_max":0,"o":"m 57 972 l 283 972 b 510 749 442 972 510 899 l 510 689 b 410 497 510 589 478 525 l 410 494 b 511 289 486 471 511 399 l 511 118 b 528 0 511 71 513 36 l 372 0 b 358 119 364 25 358 40 l 358 297 b 263 417 358 388 332 417 l 210 417 l 210 0 l 57 0 m 265 556 b 357 658 322 556 357 581 l 357 733 b 279 833 357 803 333 833 l 210 833 l 210 556 m 268 -187 l 218 -187 l 218 -60 l 346 -60 l 346 -174 l 286 -262 l 232 -262 "},"S":{"ha":517,"x_min":0,"x_max":0,"o":"m 256 -14 b 31 231 106 -14 31 75 l 31 286 l 175 286 l 175 219 b 254 125 175 150 206 125 b 333 222 303 125 333 150 b 203 442 333 303 303 354 b 33 744 75 554 33 633 b 261 986 33 897 113 986 b 483 742 410 986 483 897 l 483 701 l 339 701 l 339 751 b 263 847 339 821 311 847 b 186 754 214 847 186 821 b 318 544 186 683 218 632 b 486 233 446 432 486 354 b 256 -14 486 75 406 -14 "},"Ś":{"ha":517,"x_min":0,"x_max":0,"o":"m 272 1197 l 439 1197 l 290 1038 l 175 1038 m 256 -14 b 31 231 106 -14 31 75 l 31 286 l 175 286 l 175 219 b 254 125 175 150 206 125 b 333 222 303 125 333 150 b 203 442 333 303 303 354 b 33 744 75 554 33 633 b 261 986 33 897 113 986 b 483 742 410 986 483 897 l 483 701 l 339 701 l 339 751 b 263 847 339 821 311 847 b 186 754 214 847 186 821 b 318 544 186 683 218 632 b 486 233 446 432 486 354 b 256 -14 486 75 406 -14 "},"Š":{"ha":517,"x_min":0,"x_max":0,"o":"m 72 1197 l 188 1197 l 258 1121 l 329 1197 l 444 1197 l 331 1038 l 186 1038 m 256 -14 b 31 231 106 -14 31 75 l 31 286 l 175 286 l 175 219 b 254 125 175 150 206 125 b 333 222 303 125 333 150 b 203 442 333 303 303 354 b 33 744 75 554 33 633 b 261 986 33 897 113 986 b 483 742 410 986 483 897 l 483 701 l 339 701 l 339 751 b 263 847 339 821 311 847 b 186 754 214 847 186 821 b 318 544 186 683 218 632 b 486 233 446 432 486 354 b 256 -14 486 75 406 -14 "},"Ş":{"ha":517,"x_min":0,"x_max":0,"o":"m 486 233 b 293 -12 486 89 419 1 l 293 -54 b 389 -119 354 -54 389 -71 b 247 -204 389 -194 331 -204 b 114 -124 171 -204 114 -187 l 114 -110 l 217 -110 l 217 -121 b 247 -149 217 -142 232 -149 b 283 -115 272 -149 283 -139 b 232 -79 283 -89 267 -79 l 225 -79 l 225 -12 b 31 231 96 -1 31 86 l 31 286 l 175 286 l 175 219 b 254 125 175 150 206 125 b 333 222 303 125 333 150 b 203 442 333 303 303 354 b 33 744 75 554 33 633 b 261 986 33 897 113 986 b 483 742 410 986 483 897 l 483 701 l 339 701 l 339 751 b 263 847 339 821 311 847 b 186 754 214 847 186 821 b 318 544 186 683 218 632 b 486 233 446 432 486 354 "},"Ŝ":{"ha":517,"x_min":0,"x_max":0,"o":"m 186 1197 l 331 1197 l 444 1038 l 329 1038 l 258 1114 l 188 1038 l 72 1038 m 256 -14 b 31 231 106 -14 31 75 l 31 286 l 175 286 l 175 219 b 254 125 175 150 206 125 b 333 222 303 125 333 150 b 203 442 333 303 303 354 b 33 744 75 554 33 633 b 261 986 33 897 113 986 b 483 742 410 986 483 897 l 483 701 l 339 701 l 339 751 b 263 847 339 821 311 847 b 186 754 214 847 186 821 b 318 544 186 683 218 632 b 486 233 446 432 486 354 b 256 -14 486 75 406 -14 "},"Ș":{"ha":517,"x_min":0,"x_max":0,"o":"m 256 -14 b 31 231 106 -14 31 75 l 31 286 l 175 286 l 175 219 b 254 125 175 150 206 125 b 333 222 303 125 333 150 b 203 442 333 303 303 354 b 33 744 75 554 33 633 b 261 986 33 897 113 986 b 483 742 410 986 483 897 l 483 701 l 339 701 l 339 751 b 263 847 339 821 311 847 b 186 754 214 847 186 821 b 318 544 186 683 218 632 b 486 233 446 432 486 354 b 256 -14 486 75 406 -14 m 244 -187 l 194 -187 l 194 -60 l 322 -60 l 322 -174 l 263 -262 l 208 -262 "},"Ṡ":{"ha":517,"x_min":0,"x_max":0,"o":"m 189 1179 l 328 1179 l 328 1038 l 189 1038 m 256 -14 b 31 231 106 -14 31 75 l 31 286 l 175 286 l 175 219 b 254 125 175 150 206 125 b 333 222 303 125 333 150 b 203 442 333 303 303 354 b 33 744 75 554 33 633 b 261 986 33 897 113 986 b 483 742 410 986 483 897 l 483 701 l 339 701 l 339 751 b 263 847 339 821 311 847 b 186 754 214 847 186 821 b 318 544 186 683 218 632 b 486 233 446 432 486 354 b 256 -14 486 75 406 -14 "},"ẞ":{"ha":565,"x_min":0,"x_max":0,"o":"m 57 972 l 521 972 l 521 836 l 414 574 b 535 350 499 547 535 469 l 535 240 b 307 0 535 85 460 0 l 269 0 l 269 139 l 307 139 b 382 231 356 139 382 161 l 382 360 b 307 451 382 429 356 451 l 269 451 l 269 581 l 371 833 l 210 833 l 210 0 l 57 0 "},"T":{"ha":506,"x_min":0,"x_max":0,"o":"m 176 833 l 17 833 l 17 972 l 489 972 l 489 833 l 329 833 l 329 0 l 176 0 "},"Ŧ":{"ha":506,"x_min":0,"x_max":0,"o":"m 329 833 l 329 576 l 435 576 l 435 438 l 329 438 l 329 0 l 176 0 l 176 438 l 71 438 l 71 576 l 176 576 l 176 833 l 17 833 l 17 972 l 489 972 l 489 833 "},"Ť":{"ha":506,"x_min":0,"x_max":0,"o":"m 67 1197 l 182 1197 l 253 1121 l 324 1197 l 439 1197 l 325 1038 l 181 1038 m 176 833 l 17 833 l 17 972 l 489 972 l 489 833 l 329 833 l 329 0 l 176 0 "},"Ţ":{"ha":506,"x_min":0,"x_max":0,"o":"m 288 0 l 288 -54 b 383 -119 349 -54 383 -71 b 242 -204 383 -194 325 -204 b 108 -124 165 -204 108 -187 l 108 -110 l 211 -110 l 211 -121 b 242 -149 211 -142 226 -149 b 278 -115 267 -149 278 -139 b 226 -79 278 -89 261 -79 l 219 -79 l 219 0 l 176 0 l 176 833 l 17 833 l 17 972 l 489 972 l 489 833 l 329 833 l 329 0 "},"Ț":{"ha":506,"x_min":0,"x_max":0,"o":"m 176 833 l 17 833 l 17 972 l 489 972 l 489 833 l 329 833 l 329 0 l 176 0 m 239 -187 l 189 -187 l 189 -60 l 317 -60 l 317 -174 l 257 -262 l 203 -262 "},"Ṫ":{"ha":506,"x_min":0,"x_max":0,"o":"m 183 1179 l 322 1179 l 322 1038 l 183 1038 m 176 833 l 17 833 l 17 972 l 489 972 l 489 833 l 329 833 l 329 0 l 176 0 "},"U":{"ha":558,"x_min":0,"x_max":0,"o":"m 279 -14 b 51 231 129 -14 51 75 l 51 972 l 204 972 l 204 219 b 282 125 204 150 233 125 b 360 219 331 125 360 150 l 360 972 l 507 972 l 507 231 b 279 -14 507 75 429 -14 "},"Ú":{"ha":558,"x_min":0,"x_max":0,"o":"m 293 1197 l 460 1197 l 311 1038 l 196 1038 m 279 -14 b 51 231 129 -14 51 75 l 51 972 l 204 972 l 204 219 b 282 125 204 150 233 125 b 360 219 331 125 360 150 l 360 972 l 507 972 l 507 231 b 279 -14 507 75 429 -14 "},"Ŭ":{"ha":558,"x_min":0,"x_max":0,"o":"m 278 1032 b 115 1197 174 1032 119 1094 l 206 1197 b 278 1131 213 1144 239 1131 b 353 1197 318 1131 346 1144 l 443 1197 b 278 1032 440 1094 382 1032 m 279 -14 b 51 231 129 -14 51 75 l 51 972 l 204 972 l 204 219 b 282 125 204 150 233 125 b 360 219 331 125 360 150 l 360 972 l 507 972 l 507 231 b 279 -14 507 75 429 -14 "},"Û":{"ha":558,"x_min":0,"x_max":0,"o":"m 207 1197 l 351 1197 l 465 1038 l 350 1038 l 279 1114 l 208 1038 l 93 1038 m 279 -14 b 51 231 129 -14 51 75 l 51 972 l 204 972 l 204 219 b 282 125 204 150 233 125 b 360 219 331 125 360 150 l 360 972 l 507 972 l 507 231 b 279 -14 507 75 429 -14 "},"Ü":{"ha":558,"x_min":0,"x_max":0,"o":"m 104 1179 l 240 1179 l 240 1038 l 104 1038 m 318 1179 l 454 1179 l 454 1038 l 318 1038 m 279 -14 b 51 231 129 -14 51 75 l 51 972 l 204 972 l 204 219 b 282 125 204 150 233 125 b 360 219 331 125 360 150 l 360 972 l 507 972 l 507 231 b 279 -14 507 75 429 -14 "},"Ù":{"ha":558,"x_min":0,"x_max":0,"o":"m 99 1197 l 265 1197 l 363 1038 l 247 1038 m 279 -14 b 51 231 129 -14 51 75 l 51 972 l 204 972 l 204 219 b 282 125 204 150 233 125 b 360 219 331 125 360 150 l 360 972 l 507 972 l 507 231 b 279 -14 507 75 429 -14 "},"Ű":{"ha":558,"x_min":0,"x_max":0,"o":"m 190 1197 l 344 1197 l 200 1038 l 93 1038 m 397 1197 l 551 1197 l 407 1038 l 300 1038 m 279 -14 b 51 231 129 -14 51 75 l 51 972 l 204 972 l 204 219 b 282 125 204 150 233 125 b 360 219 331 125 360 150 l 360 972 l 507 972 l 507 231 b 279 -14 507 75 429 -14 "},"Ū":{"ha":558,"x_min":0,"x_max":0,"o":"m 119 1158 l 439 1158 l 439 1050 l 119 1050 m 279 -14 b 51 231 129 -14 51 75 l 51 972 l 204 972 l 204 219 b 282 125 204 150 233 125 b 360 219 331 125 360 150 l 360 972 l 507 972 l 507 231 b 279 -14 507 75 429 -14 "},"Ų":{"ha":558,"x_min":0,"x_max":0,"o":"m 507 972 l 507 231 b 349 -7 507 101 453 18 b 314 -81 321 -33 314 -62 b 363 -119 314 -107 338 -119 b 413 -111 390 -119 397 -115 l 413 -189 b 318 -204 381 -201 357 -204 b 196 -118 243 -204 196 -175 b 267 -14 196 -79 219 -43 b 51 231 125 -8 51 79 l 51 972 l 204 972 l 204 219 b 282 125 204 150 233 125 b 360 219 331 125 360 150 l 360 972 "},"Ů":{"ha":558,"x_min":0,"x_max":0,"o":"m 279 1022 b 156 1144 208 1022 156 1076 b 279 1267 156 1213 208 1267 b 403 1144 350 1267 403 1213 b 279 1022 403 1076 350 1022 m 279 1096 b 324 1144 304 1096 324 1115 b 279 1193 324 1174 304 1193 b 235 1144 254 1193 235 1174 b 279 1096 235 1115 254 1096 m 279 -14 b 51 231 129 -14 51 75 l 51 972 l 204 972 l 204 219 b 282 125 204 150 233 125 b 360 219 331 125 360 150 l 360 972 l 507 972 l 507 231 b 279 -14 507 75 429 -14 "},"Ũ":{"ha":558,"x_min":0,"x_max":0,"o":"m 86 1076 b 213 1193 121 1154 160 1193 b 296 1167 250 1193 275 1179 b 343 1149 313 1157 326 1149 b 399 1203 365 1149 381 1164 l 472 1158 b 346 1042 438 1081 399 1042 b 263 1068 308 1042 283 1056 b 215 1086 246 1078 232 1086 b 160 1032 193 1086 178 1071 m 279 -14 b 51 231 129 -14 51 75 l 51 972 l 204 972 l 204 219 b 282 125 204 150 233 125 b 360 219 331 125 360 150 l 360 972 l 507 972 l 507 231 b 279 -14 507 75 429 -14 "},"V":{"ha":531,"x_min":0,"x_max":0,"o":"m 17 972 l 171 972 l 271 218 l 274 218 l 374 972 l 514 972 l 367 0 l 164 0 "},"W":{"ha":774,"x_min":0,"x_max":0,"o":"m 21 972 l 168 972 l 236 225 l 239 225 l 311 972 l 478 972 l 550 225 l 553 225 l 621 972 l 753 972 l 654 0 l 464 0 l 394 656 l 392 656 l 322 0 l 119 0 "},"Ẃ":{"ha":774,"x_min":0,"x_max":0,"o":"m 401 1197 l 568 1197 l 419 1038 l 304 1038 m 21 972 l 168 972 l 236 225 l 239 225 l 311 972 l 478 972 l 550 225 l 553 225 l 621 972 l 753 972 l 654 0 l 464 0 l 394 656 l 392 656 l 322 0 l 119 0 "},"Ŵ":{"ha":774,"x_min":0,"x_max":0,"o":"m 315 1197 l 460 1197 l 574 1038 l 458 1038 l 388 1114 l 317 1038 l 201 1038 m 21 972 l 168 972 l 236 225 l 239 225 l 311 972 l 478 972 l 550 225 l 553 225 l 621 972 l 753 972 l 654 0 l 464 0 l 394 656 l 392 656 l 322 0 l 119 0 "},"Ẅ":{"ha":774,"x_min":0,"x_max":0,"o":"m 213 1179 l 349 1179 l 349 1038 l 213 1038 m 426 1179 l 563 1179 l 563 1038 l 426 1038 m 21 972 l 168 972 l 236 225 l 239 225 l 311 972 l 478 972 l 550 225 l 553 225 l 621 972 l 753 972 l 654 0 l 464 0 l 394 656 l 392 656 l 322 0 l 119 0 "},"Ẁ":{"ha":774,"x_min":0,"x_max":0,"o":"m 207 1197 l 374 1197 l 471 1038 l 356 1038 m 21 972 l 168 972 l 236 225 l 239 225 l 311 972 l 478 972 l 550 225 l 553 225 l 621 972 l 753 972 l 654 0 l 464 0 l 394 656 l 392 656 l 322 0 l 119 0 "},"X":{"ha":564,"x_min":0,"x_max":0,"o":"m 192 497 l 24 972 l 185 972 l 288 658 l 290 658 l 396 972 l 540 972 l 372 497 l 549 0 l 388 0 l 276 339 l 274 339 l 160 0 l 15 0 "},"Y":{"ha":547,"x_min":0,"x_max":0,"o":"m 197 414 l 13 972 l 175 972 l 279 615 l 282 615 l 386 972 l 535 972 l 350 414 l 350 0 l 197 0 "},"Ý":{"ha":547,"x_min":0,"x_max":0,"o":"m 288 1197 l 454 1197 l 306 1038 l 190 1038 m 197 414 l 13 972 l 175 972 l 279 615 l 282 615 l 386 972 l 535 972 l 350 414 l 350 0 l 197 0 "},"Ŷ":{"ha":547,"x_min":0,"x_max":0,"o":"m 201 1197 l 346 1197 l 460 1038 l 344 1038 l 274 1114 l 203 1038 l 88 1038 m 197 414 l 13 972 l 175 972 l 279 615 l 282 615 l 386 972 l 535 972 l 350 414 l 350 0 l 197 0 "},"Ÿ":{"ha":547,"x_min":0,"x_max":0,"o":"m 99 1179 l 235 1179 l 235 1038 l 99 1038 m 313 1179 l 449 1179 l 449 1038 l 313 1038 m 197 414 l 13 972 l 175 972 l 279 615 l 282 615 l 386 972 l 535 972 l 350 414 l 350 0 l 197 0 "},"Ỳ":{"ha":547,"x_min":0,"x_max":0,"o":"m 93 1197 l 260 1197 l 357 1038 l 242 1038 m 197 414 l 13 972 l 175 972 l 279 615 l 282 615 l 386 972 l 535 972 l 350 414 l 350 0 l 197 0 "},"Z":{"ha":503,"x_min":0,"x_max":0,"o":"m 26 136 l 310 833 l 40 833 l 40 972 l 474 972 l 474 836 l 190 139 l 474 139 l 474 0 l 26 0 "},"Ź":{"ha":503,"x_min":0,"x_max":0,"o":"m 271 1197 l 438 1197 l 289 1038 l 174 1038 m 26 136 l 310 833 l 40 833 l 40 972 l 474 972 l 474 836 l 190 139 l 474 139 l 474 0 l 26 0 "},"Ž":{"ha":503,"x_min":0,"x_max":0,"o":"m 71 1197 l 186 1197 l 257 1121 l 328 1197 l 443 1197 l 329 1038 l 185 1038 m 26 136 l 310 833 l 40 833 l 40 972 l 474 972 l 474 836 l 190 139 l 474 139 l 474 0 l 26 0 "},"Ż":{"ha":503,"x_min":0,"x_max":0,"o":"m 188 1179 l 326 1179 l 326 1038 l 188 1038 m 26 136 l 310 833 l 40 833 l 40 972 l 474 972 l 474 836 l 190 139 l 474 139 l 474 0 l 26 0 "},"a":{"ha":557,"x_min":0,"x_max":0,"o":"m 175 972 l 382 972 l 540 0 l 388 0 l 360 193 l 360 190 l 186 190 l 158 0 l 17 0 m 342 322 l 274 803 l 271 803 l 204 322 "},"á":{"ha":557,"x_min":0,"x_max":0,"o":"m 293 1197 l 460 1197 l 311 1038 l 196 1038 m 175 972 l 382 972 l 540 0 l 388 0 l 360 193 l 360 190 l 186 190 l 158 0 l 17 0 m 342 322 l 274 803 l 271 803 l 204 322 "},"ă":{"ha":557,"x_min":0,"x_max":0,"o":"m 278 1032 b 115 1197 174 1032 119 1094 l 206 1197 b 278 1131 213 1144 239 1131 b 353 1197 318 1131 346 1144 l 443 1197 b 278 1032 440 1094 382 1032 m 175 972 l 382 972 l 540 0 l 388 0 l 360 193 l 360 190 l 186 190 l 158 0 l 17 0 m 342 322 l 274 803 l 271 803 l 204 322 "},"â":{"ha":557,"x_min":0,"x_max":0,"o":"m 207 1197 l 351 1197 l 465 1038 l 350 1038 l 279 1114 l 208 1038 l 93 1038 m 175 972 l 382 972 l 540 0 l 388 0 l 360 193 l 360 190 l 186 190 l 158 0 l 17 0 m 342 322 l 274 803 l 271 803 l 204 322 "},"ä":{"ha":557,"x_min":0,"x_max":0,"o":"m 104 1179 l 240 1179 l 240 1038 l 104 1038 m 318 1179 l 454 1179 l 454 1038 l 318 1038 m 175 972 l 382 972 l 540 0 l 388 0 l 360 193 l 360 190 l 186 190 l 158 0 l 17 0 m 342 322 l 274 803 l 271 803 l 204 322 "},"à":{"ha":557,"x_min":0,"x_max":0,"o":"m 99 1197 l 265 1197 l 363 1038 l 247 1038 m 175 972 l 382 972 l 540 0 l 388 0 l 360 193 l 360 190 l 186 190 l 158 0 l 17 0 m 342 322 l 274 803 l 271 803 l 204 322 "},"ā":{"ha":557,"x_min":0,"x_max":0,"o":"m 119 1158 l 439 1158 l 439 1050 l 119 1050 m 175 972 l 382 972 l 540 0 l 388 0 l 360 193 l 360 190 l 186 190 l 158 0 l 17 0 m 342 322 l 274 803 l 271 803 l 204 322 "},"ą":{"ha":557,"x_min":0,"x_max":0,"o":"m 442 -81 b 490 -119 442 -107 465 -119 b 540 -111 518 -119 525 -115 l 540 -189 b 446 -204 508 -201 485 -204 b 324 -118 371 -204 324 -175 b 418 0 324 -74 354 -32 l 388 0 l 360 193 l 360 190 l 186 190 l 158 0 l 17 0 l 175 972 l 382 972 l 540 0 l 483 0 b 442 -81 449 -29 442 -61 m 342 322 l 274 803 l 271 803 l 204 322 "},"å":{"ha":557,"x_min":0,"x_max":0,"o":"m 279 1022 b 156 1144 208 1022 156 1076 b 279 1267 156 1213 208 1267 b 403 1144 350 1267 403 1213 b 279 1022 403 1076 350 1022 m 279 1096 b 324 1144 304 1096 324 1115 b 279 1193 324 1174 304 1193 b 235 1144 254 1193 235 1174 b 279 1096 235 1115 254 1096 m 175 972 l 382 972 l 540 0 l 388 0 l 360 193 l 360 190 l 186 190 l 158 0 l 17 0 m 342 322 l 274 803 l 271 803 l 204 322 "},"ã":{"ha":557,"x_min":0,"x_max":0,"o":"m 86 1076 b 213 1193 121 1154 160 1193 b 296 1167 250 1193 275 1179 b 343 1149 313 1157 326 1149 b 399 1203 365 1149 381 1164 l 472 1158 b 346 1042 438 1081 399 1042 b 263 1068 308 1042 283 1056 b 215 1086 246 1078 232 1086 b 160 1032 193 1086 178 1071 m 175 972 l 382 972 l 540 0 l 388 0 l 360 193 l 360 190 l 186 190 l 158 0 l 17 0 m 342 322 l 274 803 l 271 803 l 204 322 "},"æ":{"ha":806,"x_min":0,"x_max":0,"o":"m 274 972 l 775 972 l 775 833 l 511 833 l 511 576 l 721 576 l 721 438 l 511 438 l 511 139 l 775 139 l 775 0 l 358 0 l 358 190 l 208 190 l 160 0 l 14 0 m 358 322 l 358 785 l 356 785 l 242 322 "},"ǽ":{"ha":806,"x_min":0,"x_max":0,"o":"m 414 1197 l 581 1197 l 432 1038 l 317 1038 m 274 972 l 775 972 l 775 833 l 511 833 l 511 576 l 721 576 l 721 438 l 511 438 l 511 139 l 775 139 l 775 0 l 358 0 l 358 190 l 208 190 l 160 0 l 14 0 m 358 322 l 358 785 l 356 785 l 242 322 "},"b":{"ha":561,"x_min":0,"x_max":0,"o":"m 57 972 l 288 972 b 514 749 446 972 514 899 l 514 710 b 415 519 514 610 483 547 l 415 517 b 529 314 497 489 529 417 l 529 231 b 297 0 529 81 450 0 l 57 0 m 269 576 b 361 679 326 576 361 601 l 361 733 b 283 833 361 803 338 833 l 210 833 l 210 576 m 297 139 b 376 235 349 139 376 163 l 376 319 b 278 438 376 410 347 438 l 210 438 l 210 139 "},"ḃ":{"ha":561,"x_min":0,"x_max":0,"o":"m 196 1179 l 335 1179 l 335 1038 l 196 1038 m 57 972 l 288 972 b 514 749 446 972 514 899 l 514 710 b 415 519 514 610 483 547 l 415 517 b 529 314 497 489 529 417 l 529 231 b 297 0 529 81 450 0 l 57 0 m 269 576 b 361 679 326 576 361 601 l 361 733 b 283 833 361 803 338 833 l 210 833 l 210 576 m 297 139 b 376 235 349 139 376 163 l 376 319 b 278 438 376 410 347 438 l 210 438 l 210 139 "},"c":{"ha":532,"x_min":0,"x_max":0,"o":"m 272 -14 b 47 225 125 -14 47 75 l 47 747 b 272 986 47 897 125 986 b 497 747 419 986 497 897 l 497 644 l 353 644 l 353 757 b 276 847 353 821 322 847 b 200 757 231 847 200 821 l 200 214 b 276 125 200 150 231 125 b 353 214 322 125 353 150 l 353 363 l 497 363 l 497 225 b 272 -14 497 75 419 -14 "},"ć":{"ha":532,"x_min":0,"x_max":0,"o":"m 282 1197 l 449 1197 l 300 1038 l 185 1038 m 272 -14 b 47 225 125 -14 47 75 l 47 747 b 272 986 47 897 125 986 b 497 747 419 986 497 897 l 497 644 l 353 644 l 353 757 b 276 847 353 821 322 847 b 200 757 231 847 200 821 l 200 214 b 276 125 200 150 231 125 b 353 214 322 125 353 150 l 353 363 l 497 363 l 497 225 b 272 -14 497 75 419 -14 "},"č":{"ha":532,"x_min":0,"x_max":0,"o":"m 82 1197 l 197 1197 l 268 1121 l 339 1197 l 454 1197 l 340 1038 l 196 1038 m 272 -14 b 47 225 125 -14 47 75 l 47 747 b 272 986 47 897 125 986 b 497 747 419 986 497 897 l 497 644 l 353 644 l 353 757 b 276 847 353 821 322 847 b 200 757 231 847 200 821 l 200 214 b 276 125 200 150 231 125 b 353 214 322 125 353 150 l 353 363 l 497 363 l 497 225 b 272 -14 497 75 419 -14 "},"ç":{"ha":532,"x_min":0,"x_max":0,"o":"m 353 644 l 353 757 b 276 847 353 821 322 847 b 200 757 231 847 200 821 l 200 214 b 276 125 200 150 231 125 b 353 214 322 125 353 150 l 353 363 l 497 363 l 497 225 b 308 -12 497 88 432 1 l 308 -54 b 404 -119 369 -54 404 -71 b 263 -204 404 -194 346 -204 b 129 -124 186 -204 129 -187 l 129 -110 l 232 -110 l 232 -121 b 263 -149 232 -142 247 -149 b 299 -115 288 -149 299 -139 b 247 -79 299 -89 282 -79 l 240 -79 l 240 -12 b 47 225 114 0 47 86 l 47 747 b 272 986 47 897 125 986 b 497 747 419 986 497 897 l 497 644 "},"ĉ":{"ha":532,"x_min":0,"x_max":0,"o":"m 196 1197 l 340 1197 l 454 1038 l 339 1038 l 268 1114 l 197 1038 l 82 1038 m 272 -14 b 47 225 125 -14 47 75 l 47 747 b 272 986 47 897 125 986 b 497 747 419 986 497 897 l 497 644 l 353 644 l 353 757 b 276 847 353 821 322 847 b 200 757 231 847 200 821 l 200 214 b 276 125 200 150 231 125 b 353 214 322 125 353 150 l 353 363 l 497 363 l 497 225 b 272 -14 497 75 419 -14 "},"ċ":{"ha":532,"x_min":0,"x_max":0,"o":"m 199 1179 l 338 1179 l 338 1038 l 199 1038 m 272 -14 b 47 225 125 -14 47 75 l 47 747 b 272 986 47 897 125 986 b 497 747 419 986 497 897 l 497 644 l 353 644 l 353 757 b 276 847 353 821 322 847 b 200 757 231 847 200 821 l 200 214 b 276 125 200 150 231 125 b 353 214 322 125 353 150 l 353 363 l 497 363 l 497 225 b 272 -14 497 75 419 -14 "},"d":{"ha":564,"x_min":0,"x_max":0,"o":"m 57 972 l 290 972 b 518 732 443 972 518 888 l 518 240 b 290 0 518 85 443 0 l 57 0 m 288 139 b 365 233 336 139 365 164 l 365 739 b 288 833 365 808 336 833 l 210 833 l 210 139 "},"ð":{"ha":588,"x_min":0,"x_max":0,"o":"m 314 972 b 542 732 467 972 542 888 l 542 240 b 314 0 542 85 467 0 l 81 0 l 81 442 l 14 442 l 14 572 l 81 572 l 81 972 l 314 972 m 389 739 b 311 833 389 808 360 833 l 233 833 l 233 572 l 311 572 l 311 442 l 233 442 l 233 139 l 311 139 b 389 233 360 139 389 164 "},"ď":{"ha":564,"x_min":0,"x_max":0,"o":"m 85 1197 l 200 1197 l 271 1121 l 342 1197 l 457 1197 l 343 1038 l 199 1038 m 57 972 l 290 972 b 518 732 443 972 518 888 l 518 240 b 290 0 518 85 443 0 l 57 0 m 288 139 b 365 233 336 139 365 164 l 365 739 b 288 833 365 808 336 833 l 210 833 l 210 139 "},"đ":{"ha":588,"x_min":0,"x_max":0,"o":"m 314 972 b 542 732 467 972 542 888 l 542 240 b 314 0 542 85 467 0 l 81 0 l 81 442 l 14 442 l 14 572 l 81 572 l 81 972 l 314 972 m 389 739 b 311 833 389 808 360 833 l 233 833 l 233 572 l 311 572 l 311 442 l 233 442 l 233 139 l 311 139 b 389 233 360 139 389 164 "},"ḋ":{"ha":564,"x_min":0,"x_max":0,"o":"m 201 1179 l 340 1179 l 340 1038 l 201 1038 m 57 972 l 290 972 b 518 732 443 972 518 888 l 518 240 b 290 0 518 85 443 0 l 57 0 m 288 139 b 365 233 336 139 365 164 l 365 739 b 288 833 365 808 336 833 l 210 833 l 210 139 "},"e":{"ha":504,"x_min":0,"x_max":0,"o":"m 57 972 l 474 972 l 474 833 l 210 833 l 210 576 l 419 576 l 419 438 l 210 438 l 210 139 l 474 139 l 474 0 l 57 0 "},"é":{"ha":504,"x_min":0,"x_max":0,"o":"m 279 1197 l 446 1197 l 297 1038 l 182 1038 m 57 972 l 474 972 l 474 833 l 210 833 l 210 576 l 419 576 l 419 438 l 210 438 l 210 139 l 474 139 l 474 0 l 57 0 "},"ĕ":{"ha":504,"x_min":0,"x_max":0,"o":"m 264 1032 b 101 1197 160 1032 106 1094 l 192 1197 b 264 1131 199 1144 225 1131 b 339 1197 304 1131 332 1144 l 429 1197 b 264 1032 426 1094 368 1032 m 57 972 l 474 972 l 474 833 l 210 833 l 210 576 l 419 576 l 419 438 l 210 438 l 210 139 l 474 139 l 474 0 l 57 0 "},"ě":{"ha":504,"x_min":0,"x_max":0,"o":"m 79 1197 l 194 1197 l 265 1121 l 336 1197 l 451 1197 l 338 1038 l 193 1038 m 57 972 l 474 972 l 474 833 l 210 833 l 210 576 l 419 576 l 419 438 l 210 438 l 210 139 l 474 139 l 474 0 l 57 0 "},"ê":{"ha":504,"x_min":0,"x_max":0,"o":"m 193 1197 l 338 1197 l 451 1038 l 336 1038 l 265 1114 l 194 1038 l 79 1038 m 57 972 l 474 972 l 474 833 l 210 833 l 210 576 l 419 576 l 419 438 l 210 438 l 210 139 l 474 139 l 474 0 l 57 0 "},"ë":{"ha":504,"x_min":0,"x_max":0,"o":"m 90 1179 l 226 1179 l 226 1038 l 90 1038 m 304 1179 l 440 1179 l 440 1038 l 304 1038 m 57 972 l 474 972 l 474 833 l 210 833 l 210 576 l 419 576 l 419 438 l 210 438 l 210 139 l 474 139 l 474 0 l 57 0 "},"ė":{"ha":504,"x_min":0,"x_max":0,"o":"m 196 1179 l 335 1179 l 335 1038 l 196 1038 m 57 972 l 474 972 l 474 833 l 210 833 l 210 576 l 419 576 l 419 438 l 210 438 l 210 139 l 474 139 l 474 0 l 57 0 "},"è":{"ha":504,"x_min":0,"x_max":0,"o":"m 85 1197 l 251 1197 l 349 1038 l 233 1038 m 57 972 l 474 972 l 474 833 l 210 833 l 210 576 l 419 576 l 419 438 l 210 438 l 210 139 l 474 139 l 474 0 l 57 0 "},"ē":{"ha":504,"x_min":0,"x_max":0,"o":"m 106 1158 l 425 1158 l 425 1050 l 106 1050 m 57 972 l 474 972 l 474 833 l 210 833 l 210 576 l 419 576 l 419 438 l 210 438 l 210 139 l 474 139 l 474 0 l 57 0 "},"ę":{"ha":504,"x_min":0,"x_max":0,"o":"m 210 833 l 210 576 l 419 576 l 419 438 l 210 438 l 210 139 l 474 139 l 474 0 l 417 0 b 375 -81 382 -29 375 -61 b 424 -119 375 -107 399 -119 b 474 -111 451 -119 458 -115 l 474 -189 b 379 -204 442 -201 418 -204 b 257 -118 304 -204 257 -175 b 351 0 257 -74 288 -32 l 57 0 l 57 972 l 474 972 l 474 833 "},"f":{"ha":478,"x_min":0,"x_max":0,"o":"m 57 972 l 461 972 l 461 833 l 210 833 l 210 563 l 407 563 l 407 424 l 210 424 l 210 0 l 57 0 "},"ḟ":{"ha":478,"x_min":0,"x_max":0,"o":"m 185 1179 l 324 1179 l 324 1038 l 185 1038 m 57 972 l 461 972 l 461 833 l 210 833 l 210 563 l 407 563 l 407 424 l 210 424 l 210 0 l 57 0 "},"g":{"ha":543,"x_min":0,"x_max":0,"o":"m 274 -14 b 46 231 124 -14 46 75 l 46 742 b 274 986 46 897 124 986 b 501 742 424 986 501 897 l 501 658 l 357 658 l 357 751 b 278 847 357 821 326 847 b 199 751 229 847 199 821 l 199 219 b 278 125 199 150 229 125 b 357 219 326 125 357 150 l 357 410 l 281 410 l 281 549 l 501 549 l 501 231 b 274 -14 501 75 424 -14 "},"ğ":{"ha":543,"x_min":0,"x_max":0,"o":"m 272 1032 b 110 1197 168 1032 114 1094 l 200 1197 b 272 1131 207 1144 233 1131 b 347 1197 313 1131 340 1144 l 438 1197 b 272 1032 435 1094 376 1032 m 274 -14 b 46 231 124 -14 46 75 l 46 742 b 274 986 46 897 124 986 b 501 742 424 986 501 897 l 501 658 l 357 658 l 357 751 b 278 847 357 821 326 847 b 199 751 229 847 199 821 l 199 219 b 278 125 199 150 229 125 b 357 219 326 125 357 150 l 357 410 l 281 410 l 281 549 l 501 549 l 501 231 b 274 -14 501 75 424 -14 "},"ĝ":{"ha":543,"x_min":0,"x_max":0,"o":"m 201 1197 l 346 1197 l 460 1038 l 344 1038 l 274 1114 l 203 1038 l 88 1038 m 274 -14 b 46 231 124 -14 46 75 l 46 742 b 274 986 46 897 124 986 b 501 742 424 986 501 897 l 501 658 l 357 658 l 357 751 b 278 847 357 821 326 847 b 199 751 229 847 199 821 l 199 219 b 278 125 199 150 229 125 b 357 219 326 125 357 150 l 357 410 l 281 410 l 281 549 l 501 549 l 501 231 b 274 -14 501 75 424 -14 "},"ģ":{"ha":543,"x_min":0,"x_max":0,"o":"m 274 -14 b 46 231 124 -14 46 75 l 46 742 b 274 986 46 897 124 986 b 501 742 424 986 501 897 l 501 658 l 357 658 l 357 751 b 278 847 357 821 326 847 b 199 751 229 847 199 821 l 199 219 b 278 125 199 150 229 125 b 357 219 326 125 357 150 l 357 410 l 281 410 l 281 549 l 501 549 l 501 231 b 274 -14 501 75 424 -14 m 258 -187 l 208 -187 l 208 -60 l 336 -60 l 336 -174 l 276 -262 l 222 -262 "},"ġ":{"ha":543,"x_min":0,"x_max":0,"o":"m 204 1179 l 343 1179 l 343 1038 l 204 1038 m 274 -14 b 46 231 124 -14 46 75 l 46 742 b 274 986 46 897 124 986 b 501 742 424 986 501 897 l 501 658 l 357 658 l 357 751 b 278 847 357 821 326 847 b 199 751 229 847 199 821 l 199 219 b 278 125 199 150 229 125 b 357 219 326 125 357 150 l 357 410 l 281 410 l 281 549 l 501 549 l 501 231 b 274 -14 501 75 424 -14 "},"h":{"ha":583,"x_min":0,"x_max":0,"o":"m 57 972 l 210 972 l 210 576 l 374 576 l 374 972 l 526 972 l 526 0 l 374 0 l 374 438 l 210 438 l 210 0 l 57 0 "},"ħ":{"ha":608,"x_min":0,"x_max":0,"o":"m 594 713 l 539 713 l 539 0 l 386 0 l 386 438 l 222 438 l 222 0 l 69 0 l 69 713 l 14 713 l 14 838 l 69 838 l 69 972 l 222 972 l 222 838 l 386 838 l 386 972 l 539 972 l 539 838 l 594 838 m 386 713 l 222 713 l 222 576 l 386 576 "},"ĥ":{"ha":583,"x_min":0,"x_max":0,"o":"m 219 1197 l 364 1197 l 478 1038 l 363 1038 l 292 1114 l 221 1038 l 106 1038 m 57 972 l 210 972 l 210 576 l 374 576 l 374 972 l 526 972 l 526 0 l 374 0 l 374 438 l 210 438 l 210 0 l 57 0 "},"i":{"ha":267,"x_min":0,"x_max":0,"o":"m 57 972 l 210 972 l 210 0 l 57 0 "},"ı":{"ha":267,"x_min":0,"x_max":0,"o":"m 57 972 l 210 972 l 210 0 l 57 0 "},"í":{"ha":267,"x_min":0,"x_max":0,"o":"m 147 1197 l 314 1197 l 165 1038 l 50 1038 m 57 972 l 210 972 l 210 0 l 57 0 "},"ĭ":{"ha":267,"x_min":0,"x_max":0,"o":"m 132 1032 b -31 1197 28 1032 -26 1094 l 60 1197 b 132 1131 67 1144 93 1131 b 207 1197 172 1131 200 1144 l 297 1197 b 132 1032 294 1094 236 1032 m 57 972 l 210 972 l 210 0 l 57 0 "},"î":{"ha":267,"x_min":0,"x_max":0,"o":"m 61 1197 l 206 1197 l 319 1038 l 204 1038 l 133 1114 l 63 1038 l -53 1038 m 57 972 l 210 972 l 210 0 l 57 0 "},"ï":{"ha":267,"x_min":0,"x_max":0,"o":"m -42 1179 l 94 1179 l 94 1038 l -42 1038 m 172 1179 l 308 1179 l 308 1038 l 172 1038 m 57 972 l 210 972 l 210 0 l 57 0 "},"ì":{"ha":267,"x_min":0,"x_max":0,"o":"m -47 1197 l 119 1197 l 217 1038 l 101 1038 m 57 972 l 210 972 l 210 0 l 57 0 "},"ĳ":{"ha":635,"x_min":0,"x_max":0,"o":"m 57 972 l 210 972 l 210 0 l 57 0 m 360 -6 b 289 0 332 -6 311 -4 l 289 139 b 339 133 306 135 322 133 b 429 226 400 133 429 163 l 429 972 l 582 972 l 582 231 b 360 -6 582 71 510 -6 "},"ī":{"ha":267,"x_min":0,"x_max":0,"o":"m -26 1158 l 293 1158 l 293 1050 l -26 1050 m 57 972 l 210 972 l 210 0 l 57 0 "},"į":{"ha":267,"x_min":0,"x_max":0,"o":"m 190 -119 b 240 -111 218 -119 225 -115 l 240 -189 b 146 -204 208 -201 185 -204 b 24 -118 71 -204 24 -175 b 118 0 24 -74 54 -32 l 57 0 l 57 972 l 210 972 l 210 0 l 183 0 b 142 -81 149 -29 142 -61 b 190 -119 142 -107 165 -119 "},"ĩ":{"ha":267,"x_min":0,"x_max":0,"o":"m -60 1076 b 67 1193 -25 1154 14 1193 b 150 1167 104 1193 129 1179 b 197 1149 167 1157 181 1149 b 253 1203 219 1149 235 1164 l 326 1158 b 200 1042 292 1081 253 1042 b 117 1068 163 1042 138 1056 b 69 1086 100 1078 86 1086 b 14 1032 47 1086 32 1071 m 57 972 l 210 972 l 210 0 l 57 0 "},"j":{"ha":368,"x_min":0,"x_max":0,"o":"m 93 -6 b 22 0 65 -6 44 -4 l 22 139 b 72 133 39 135 56 133 b 163 226 133 133 163 163 l 163 972 l 315 972 l 315 231 b 93 -6 315 71 243 -6 "},"ȷ":{"ha":368,"x_min":0,"x_max":0,"o":"m 93 -6 b 22 0 65 -6 44 -4 l 22 139 b 72 133 39 135 56 133 b 163 226 133 133 163 163 l 163 972 l 315 972 l 315 231 b 93 -6 315 71 243 -6 "},"ĵ":{"ha":368,"x_min":0,"x_max":0,"o":"m 146 1197 l 290 1197 l 404 1038 l 289 1038 l 218 1114 l 147 1038 l 32 1038 m 93 -6 b 22 0 65 -6 44 -4 l 22 139 b 72 133 39 135 56 133 b 163 226 133 133 163 163 l 163 972 l 315 972 l 315 231 b 93 -6 315 71 243 -6 "},"k":{"ha":575,"x_min":0,"x_max":0,"o":"m 57 972 l 210 972 l 210 563 l 404 972 l 557 972 l 375 615 l 560 0 l 400 0 l 271 433 l 210 310 l 210 0 l 57 0 "},"ķ":{"ha":575,"x_min":0,"x_max":0,"o":"m 57 972 l 210 972 l 210 563 l 404 972 l 557 972 l 375 615 l 560 0 l 400 0 l 271 433 l 210 310 l 210 0 l 57 0 m 288 -187 l 238 -187 l 238 -60 l 365 -60 l 365 -174 l 306 -262 l 251 -262 "},"ĸ":{"ha":575,"x_min":0,"x_max":0,"o":"m 57 972 l 210 972 l 210 563 l 404 972 l 557 972 l 375 615 l 560 0 l 400 0 l 271 433 l 210 310 l 210 0 l 57 0 "},"l":{"ha":478,"x_min":0,"x_max":0,"o":"m 57 972 l 210 972 l 210 139 l 461 139 l 461 0 l 57 0 "},"ĺ":{"ha":478,"x_min":0,"x_max":0,"o":"m 161 1197 l 328 1197 l 179 1038 l 64 1038 m 57 972 l 210 972 l 210 139 l 461 139 l 461 0 l 57 0 "},"ľ":{"ha":478,"x_min":0,"x_max":0,"o":"m 57 972 l 210 972 l 210 139 l 461 139 l 461 0 l 57 0 m 346 831 l 290 831 l 290 972 l 432 972 l 432 846 l 368 686 l 306 686 "},"ļ":{"ha":478,"x_min":0,"x_max":0,"o":"m 57 972 l 210 972 l 210 139 l 461 139 l 461 0 l 57 0 m 246 -187 l 196 -187 l 196 -60 l 324 -60 l 324 -174 l 264 -262 l 210 -262 "},"ŀ":{"ha":476,"x_min":0,"x_max":0,"o":"m 57 972 l 210 972 l 210 139 l 461 139 l 461 0 l 57 0 m 297 560 l 444 560 l 444 413 l 297 413 "},"ł":{"ha":506,"x_min":0,"x_max":0,"o":"m 489 139 l 489 0 l 85 0 l 85 222 l 14 146 l 14 313 l 85 389 l 85 972 l 238 972 l 238 553 l 403 729 l 403 563 l 238 386 l 238 139 "},"m":{"ha":747,"x_min":0,"x_max":0,"o":"m 57 972 l 275 972 l 372 276 l 375 276 l 472 972 l 690 972 l 690 0 l 546 0 l 546 736 l 543 736 l 432 0 l 304 0 l 193 736 l 190 736 l 190 0 l 57 0 "},"ṁ":{"ha":747,"x_min":0,"x_max":0,"o":"m 304 1179 l 443 1179 l 443 1038 l 304 1038 m 57 972 l 275 972 l 372 276 l 375 276 l 472 972 l 690 972 l 690 0 l 546 0 l 546 736 l 543 736 l 432 0 l 304 0 l 193 736 l 190 736 l 190 0 l 57 0 "},"n":{"ha":593,"x_min":0,"x_max":0,"o":"m 57 972 l 249 972 l 397 390 l 400 390 l 400 972 l 536 972 l 536 0 l 379 0 l 196 710 l 193 710 l 193 0 l 57 0 "},"ń":{"ha":593,"x_min":0,"x_max":0,"o":"m 311 1197 l 478 1197 l 329 1038 l 214 1038 m 57 972 l 249 972 l 397 390 l 400 390 l 400 972 l 536 972 l 536 0 l 379 0 l 196 710 l 193 710 l 193 0 l 57 0 "},"ŉ":{"ha":753,"x_min":0,"x_max":0,"o":"m 64 825 l 6 825 l 6 972 l 153 972 l 153 840 l 86 686 l 24 686 m 217 972 l 408 972 l 557 390 l 560 390 l 560 972 l 696 972 l 696 0 l 539 0 l 356 710 l 353 710 l 353 0 l 217 0 "},"ň":{"ha":593,"x_min":0,"x_max":0,"o":"m 111 1197 l 226 1197 l 297 1121 l 368 1197 l 483 1197 l 369 1038 l 225 1038 m 57 972 l 249 972 l 397 390 l 400 390 l 400 972 l 536 972 l 536 0 l 379 0 l 196 710 l 193 710 l 193 0 l 57 0 "},"ņ":{"ha":593,"x_min":0,"x_max":0,"o":"m 57 972 l 249 972 l 397 390 l 400 390 l 400 972 l 536 972 l 536 0 l 379 0 l 196 710 l 193 710 l 193 0 l 57 0 m 283 -187 l 233 -187 l 233 -60 l 361 -60 l 361 -174 l 301 -262 l 247 -262 "},"ŋ":{"ha":593,"x_min":0,"x_max":0,"o":"m 331 -236 b 263 -231 306 -236 285 -235 l 263 -99 b 317 -104 279 -103 296 -104 b 389 -25 353 -104 389 -85 b 375 64 389 6 386 25 l 196 726 l 193 726 l 193 0 l 57 0 l 57 972 l 249 972 l 397 422 l 400 422 l 400 972 l 536 972 l 536 -3 b 331 -236 536 -160 464 -236 "},"ñ":{"ha":593,"x_min":0,"x_max":0,"o":"m 104 1076 b 231 1193 139 1154 178 1193 b 314 1167 268 1193 293 1179 b 361 1149 331 1157 344 1149 b 417 1203 383 1149 399 1164 l 490 1158 b 364 1042 456 1081 417 1042 b 281 1068 326 1042 301 1056 b 233 1086 264 1078 250 1086 b 178 1032 211 1086 196 1071 m 57 972 l 249 972 l 397 390 l 400 390 l 400 972 l 536 972 l 536 0 l 379 0 l 196 710 l 193 710 l 193 0 l 57 0 "},"o":{"ha":556,"x_min":0,"x_max":0,"o":"m 278 -14 b 46 231 128 -14 46 75 l 46 742 b 278 986 46 897 128 986 b 510 742 428 986 510 897 l 510 231 b 278 -14 510 75 428 -14 m 278 125 b 357 221 326 125 357 151 l 357 751 b 278 847 357 821 326 847 b 199 751 229 847 199 821 l 199 221 b 278 125 199 151 229 125 "},"ó":{"ha":556,"x_min":0,"x_max":0,"o":"m 292 1197 l 458 1197 l 310 1038 l 194 1038 m 278 -14 b 46 231 128 -14 46 75 l 46 742 b 278 986 46 897 128 986 b 510 742 428 986 510 897 l 510 231 b 278 -14 510 75 428 -14 m 278 125 b 357 221 326 125 357 151 l 357 751 b 278 847 357 821 326 847 b 199 751 229 847 199 821 l 199 221 b 278 125 199 151 229 125 "},"ŏ":{"ha":556,"x_min":0,"x_max":0,"o":"m 276 1032 b 114 1197 172 1032 118 1094 l 204 1197 b 276 1131 211 1144 238 1131 b 351 1197 317 1131 344 1144 l 442 1197 b 276 1032 439 1094 381 1032 m 278 -14 b 46 231 128 -14 46 75 l 46 742 b 278 986 46 897 128 986 b 510 742 428 986 510 897 l 510 231 b 278 -14 510 75 428 -14 m 278 125 b 357 221 326 125 357 151 l 357 751 b 278 847 357 821 326 847 b 199 751 229 847 199 821 l 199 221 b 278 125 199 151 229 125 "},"ô":{"ha":556,"x_min":0,"x_max":0,"o":"m 206 1197 l 350 1197 l 464 1038 l 349 1038 l 278 1114 l 207 1038 l 92 1038 m 278 -14 b 46 231 128 -14 46 75 l 46 742 b 278 986 46 897 128 986 b 510 742 428 986 510 897 l 510 231 b 278 -14 510 75 428 -14 m 278 125 b 357 221 326 125 357 151 l 357 751 b 278 847 357 821 326 847 b 199 751 229 847 199 821 l 199 221 b 278 125 199 151 229 125 "},"ö":{"ha":556,"x_min":0,"x_max":0,"o":"m 103 1179 l 239 1179 l 239 1038 l 103 1038 m 317 1179 l 453 1179 l 453 1038 l 317 1038 m 278 -14 b 46 231 128 -14 46 75 l 46 742 b 278 986 46 897 128 986 b 510 742 428 986 510 897 l 510 231 b 278 -14 510 75 428 -14 m 278 125 b 357 221 326 125 357 151 l 357 751 b 278 847 357 821 326 847 b 199 751 229 847 199 821 l 199 221 b 278 125 199 151 229 125 "},"ò":{"ha":556,"x_min":0,"x_max":0,"o":"m 97 1197 l 264 1197 l 361 1038 l 246 1038 m 278 -14 b 46 231 128 -14 46 75 l 46 742 b 278 986 46 897 128 986 b 510 742 428 986 510 897 l 510 231 b 278 -14 510 75 428 -14 m 278 125 b 357 221 326 125 357 151 l 357 751 b 278 847 357 821 326 847 b 199 751 229 847 199 821 l 199 221 b 278 125 199 151 229 125 "},"ő":{"ha":556,"x_min":0,"x_max":0,"o":"m 189 1197 l 343 1197 l 199 1038 l 92 1038 m 396 1197 l 550 1197 l 406 1038 l 299 1038 m 278 -14 b 46 231 128 -14 46 75 l 46 742 b 278 986 46 897 128 986 b 510 742 428 986 510 897 l 510 231 b 278 -14 510 75 428 -14 m 278 125 b 357 221 326 125 357 151 l 357 751 b 278 847 357 821 326 847 b 199 751 229 847 199 821 l 199 221 b 278 125 199 151 229 125 "},"ō":{"ha":556,"x_min":0,"x_max":0,"o":"m 118 1158 l 438 1158 l 438 1050 l 118 1050 m 278 -14 b 46 231 128 -14 46 75 l 46 742 b 278 986 46 897 128 986 b 510 742 428 986 510 897 l 510 231 b 278 -14 510 75 428 -14 m 278 125 b 357 221 326 125 357 151 l 357 751 b 278 847 357 821 326 847 b 199 751 229 847 199 821 l 199 221 b 278 125 199 151 229 125 "},"ø":{"ha":556,"x_min":0,"x_max":0,"o":"m 483 874 b 510 742 501 838 510 793 l 510 231 b 278 -14 510 75 428 -14 b 139 22 222 -14 175 -1 l 115 -36 l 32 0 l 72 99 b 46 231 54 135 46 179 l 46 742 b 278 986 46 897 128 986 b 417 950 333 986 381 974 l 440 1008 l 524 972 m 199 411 l 353 792 b 278 847 343 832 315 847 b 199 751 229 847 199 821 m 357 561 l 203 181 b 278 125 213 140 240 125 b 357 221 326 125 357 151 "},"ǿ":{"ha":556,"x_min":0,"x_max":0,"o":"m 310 1038 l 194 1038 l 292 1197 l 458 1197 m 483 874 b 510 742 501 838 510 793 l 510 231 b 278 -14 510 75 428 -14 b 139 22 222 -14 175 -1 l 115 -36 l 32 0 l 72 99 b 46 231 54 135 46 179 l 46 742 b 278 986 46 897 128 986 b 417 950 333 986 381 974 l 440 1008 l 524 972 m 199 411 l 353 792 b 278 847 343 832 315 847 b 199 751 229 847 199 821 m 357 561 l 203 181 b 278 125 213 140 240 125 b 357 221 326 125 357 151 "},"õ":{"ha":556,"x_min":0,"x_max":0,"o":"m 85 1076 b 211 1193 119 1154 158 1193 b 294 1167 249 1193 274 1179 b 342 1149 311 1157 325 1149 b 397 1203 364 1149 379 1164 l 471 1158 b 344 1042 436 1081 397 1042 b 261 1068 307 1042 282 1056 b 214 1086 244 1078 231 1086 b 158 1032 192 1086 176 1071 m 278 -14 b 46 231 128 -14 46 75 l 46 742 b 278 986 46 897 128 986 b 510 742 428 986 510 897 l 510 231 b 278 -14 510 75 428 -14 m 278 125 b 357 221 326 125 357 151 l 357 751 b 278 847 357 821 326 847 b 199 751 229 847 199 821 l 199 221 b 278 125 199 151 229 125 "},"œ":{"ha":801,"x_min":0,"x_max":0,"o":"m 274 0 b 46 240 121 0 46 85 l 46 732 b 274 972 46 888 121 972 l 771 972 l 771 833 l 507 833 l 507 576 l 717 576 l 717 438 l 507 438 l 507 139 l 771 139 l 771 0 l 274 0 m 354 139 l 354 833 l 276 833 b 199 739 228 833 199 808 l 199 233 b 276 139 199 164 228 139 "},"p":{"ha":536,"x_min":0,"x_max":0,"o":"m 57 972 l 282 972 b 510 732 435 972 510 888 l 510 636 b 282 396 510 481 435 396 l 210 396 l 210 0 l 57 0 m 282 535 b 357 626 331 535 357 557 l 357 742 b 282 833 357 811 331 833 l 210 833 l 210 535 "},"ṗ":{"ha":536,"x_min":0,"x_max":0,"o":"m 196 1179 l 335 1179 l 335 1038 l 196 1038 m 57 972 l 282 972 b 510 732 435 972 510 888 l 510 636 b 282 396 510 481 435 396 l 210 396 l 210 0 l 57 0 m 282 535 b 357 626 331 535 357 557 l 357 742 b 282 833 357 811 331 833 l 210 833 l 210 535 "},"þ":{"ha":536,"x_min":0,"x_max":0,"o":"m 57 972 l 210 972 l 210 835 l 282 835 b 510 594 435 835 510 750 l 510 499 b 282 258 510 343 435 258 l 210 258 l 210 0 l 57 0 m 282 397 b 357 489 331 397 357 419 l 357 604 b 282 696 357 674 331 696 l 210 696 l 210 397 "},"q":{"ha":556,"x_min":0,"x_max":0,"o":"m 507 -90 b 379 3 450 -90 397 -69 b 278 -14 350 -8 315 -14 b 46 231 128 -14 46 75 l 46 742 b 278 986 46 897 128 986 b 510 742 428 986 510 897 l 510 231 b 467 71 510 164 494 111 b 524 49 478 51 496 49 l 547 49 l 547 -90 l 507 -90 m 278 125 b 357 221 326 125 357 151 l 357 751 b 278 847 357 821 326 847 b 199 751 229 847 199 821 l 199 221 b 278 125 199 151 229 125 "},"r":{"ha":560,"x_min":0,"x_max":0,"o":"m 57 972 l 283 972 b 510 749 442 972 510 899 l 510 689 b 410 497 510 589 478 525 l 410 494 b 511 289 486 471 511 399 l 511 118 b 528 0 511 71 513 36 l 372 0 b 358 119 364 25 358 40 l 358 297 b 263 417 358 388 332 417 l 210 417 l 210 0 l 57 0 m 265 556 b 357 658 322 556 357 581 l 357 733 b 279 833 357 803 333 833 l 210 833 l 210 556 "},"ŕ":{"ha":560,"x_min":0,"x_max":0,"o":"m 282 1197 l 449 1197 l 300 1038 l 185 1038 m 57 972 l 283 972 b 510 749 442 972 510 899 l 510 689 b 410 497 510 589 478 525 l 410 494 b 511 289 486 471 511 399 l 511 118 b 528 0 511 71 513 36 l 372 0 b 358 119 364 25 358 40 l 358 297 b 263 417 358 388 332 417 l 210 417 l 210 0 l 57 0 m 265 556 b 357 658 322 556 357 581 l 357 733 b 279 833 357 803 333 833 l 210 833 l 210 556 "},"ř":{"ha":560,"x_min":0,"x_max":0,"o":"m 82 1197 l 197 1197 l 268 1121 l 339 1197 l 454 1197 l 340 1038 l 196 1038 m 57 972 l 283 972 b 510 749 442 972 510 899 l 510 689 b 410 497 510 589 478 525 l 410 494 b 511 289 486 471 511 399 l 511 118 b 528 0 511 71 513 36 l 372 0 b 358 119 364 25 358 40 l 358 297 b 263 417 358 388 332 417 l 210 417 l 210 0 l 57 0 m 265 556 b 357 658 322 556 357 581 l 357 733 b 279 833 357 803 333 833 l 210 833 l 210 556 "},"ŗ":{"ha":560,"x_min":0,"x_max":0,"o":"m 57 972 l 283 972 b 510 749 442 972 510 899 l 510 689 b 410 497 510 589 478 525 l 410 494 b 511 289 486 471 511 399 l 511 118 b 528 0 511 71 513 36 l 372 0 b 358 119 364 25 358 40 l 358 297 b 263 417 358 388 332 417 l 210 417 l 210 0 l 57 0 m 265 556 b 357 658 322 556 357 581 l 357 733 b 279 833 357 803 333 833 l 210 833 l 210 556 m 268 -187 l 218 -187 l 218 -60 l 346 -60 l 346 -174 l 286 -262 l 232 -262 "},"s":{"ha":517,"x_min":0,"x_max":0,"o":"m 256 -14 b 31 231 106 -14 31 75 l 31 286 l 175 286 l 175 219 b 254 125 175 150 206 125 b 333 222 303 125 333 150 b 203 442 333 303 303 354 b 33 744 75 554 33 633 b 261 986 33 897 113 986 b 483 742 410 986 483 897 l 483 701 l 339 701 l 339 751 b 263 847 339 821 311 847 b 186 754 214 847 186 821 b 318 544 186 683 218 632 b 486 233 446 432 486 354 b 256 -14 486 75 406 -14 "},"ś":{"ha":517,"x_min":0,"x_max":0,"o":"m 272 1197 l 439 1197 l 290 1038 l 175 1038 m 256 -14 b 31 231 106 -14 31 75 l 31 286 l 175 286 l 175 219 b 254 125 175 150 206 125 b 333 222 303 125 333 150 b 203 442 333 303 303 354 b 33 744 75 554 33 633 b 261 986 33 897 113 986 b 483 742 410 986 483 897 l 483 701 l 339 701 l 339 751 b 263 847 339 821 311 847 b 186 754 214 847 186 821 b 318 544 186 683 218 632 b 486 233 446 432 486 354 b 256 -14 486 75 406 -14 "},"š":{"ha":517,"x_min":0,"x_max":0,"o":"m 72 1197 l 188 1197 l 258 1121 l 329 1197 l 444 1197 l 331 1038 l 186 1038 m 256 -14 b 31 231 106 -14 31 75 l 31 286 l 175 286 l 175 219 b 254 125 175 150 206 125 b 333 222 303 125 333 150 b 203 442 333 303 303 354 b 33 744 75 554 33 633 b 261 986 33 897 113 986 b 483 742 410 986 483 897 l 483 701 l 339 701 l 339 751 b 263 847 339 821 311 847 b 186 754 214 847 186 821 b 318 544 186 683 218 632 b 486 233 446 432 486 354 b 256 -14 486 75 406 -14 "},"ş":{"ha":517,"x_min":0,"x_max":0,"o":"m 486 233 b 293 -12 486 89 419 1 l 293 -54 b 389 -119 354 -54 389 -71 b 247 -204 389 -194 331 -204 b 114 -124 171 -204 114 -187 l 114 -110 l 217 -110 l 217 -121 b 247 -149 217 -142 232 -149 b 283 -115 272 -149 283 -139 b 232 -79 283 -89 267 -79 l 225 -79 l 225 -12 b 31 231 96 -1 31 86 l 31 286 l 175 286 l 175 219 b 254 125 175 150 206 125 b 333 222 303 125 333 150 b 203 442 333 303 303 354 b 33 744 75 554 33 633 b 261 986 33 897 113 986 b 483 742 410 986 483 897 l 483 701 l 339 701 l 339 751 b 263 847 339 821 311 847 b 186 754 214 847 186 821 b 318 544 186 683 218 632 b 486 233 446 432 486 354 "},"ŝ":{"ha":517,"x_min":0,"x_max":0,"o":"m 186 1197 l 331 1197 l 444 1038 l 329 1038 l 258 1114 l 188 1038 l 72 1038 m 256 -14 b 31 231 106 -14 31 75 l 31 286 l 175 286 l 175 219 b 254 125 175 150 206 125 b 333 222 303 125 333 150 b 203 442 333 303 303 354 b 33 744 75 554 33 633 b 261 986 33 897 113 986 b 483 742 410 986 483 897 l 483 701 l 339 701 l 339 751 b 263 847 339 821 311 847 b 186 754 214 847 186 821 b 318 544 186 683 218 632 b 486 233 446 432 486 354 b 256 -14 486 75 406 -14 "},"ș":{"ha":517,"x_min":0,"x_max":0,"o":"m 256 -14 b 31 231 106 -14 31 75 l 31 286 l 175 286 l 175 219 b 254 125 175 150 206 125 b 333 222 303 125 333 150 b 203 442 333 303 303 354 b 33 744 75 554 33 633 b 261 986 33 897 113 986 b 483 742 410 986 483 897 l 483 701 l 339 701 l 339 751 b 263 847 339 821 311 847 b 186 754 214 847 186 821 b 318 544 186 683 218 632 b 486 233 446 432 486 354 b 256 -14 486 75 406 -14 m 244 -187 l 194 -187 l 194 -60 l 322 -60 l 322 -174 l 263 -262 l 208 -262 "},"ṡ":{"ha":517,"x_min":0,"x_max":0,"o":"m 189 1179 l 328 1179 l 328 1038 l 189 1038 m 256 -14 b 31 231 106 -14 31 75 l 31 286 l 175 286 l 175 219 b 254 125 175 150 206 125 b 333 222 303 125 333 150 b 203 442 333 303 303 354 b 33 744 75 554 33 633 b 261 986 33 897 113 986 b 483 742 410 986 483 897 l 483 701 l 339 701 l 339 751 b 263 847 339 821 311 847 b 186 754 214 847 186 821 b 318 544 186 683 218 632 b 486 233 446 432 486 354 b 256 -14 486 75 406 -14 "},"ß":{"ha":565,"x_min":0,"x_max":0,"o":"m 57 972 l 521 972 l 521 836 l 414 574 b 535 350 499 547 535 469 l 535 240 b 307 0 535 85 460 0 l 269 0 l 269 139 l 307 139 b 382 231 356 139 382 161 l 382 360 b 307 451 382 429 356 451 l 269 451 l 269 581 l 371 833 l 210 833 l 210 0 l 57 0 "},"t":{"ha":506,"x_min":0,"x_max":0,"o":"m 176 833 l 17 833 l 17 972 l 489 972 l 489 833 l 329 833 l 329 0 l 176 0 "},"ŧ":{"ha":506,"x_min":0,"x_max":0,"o":"m 329 833 l 329 576 l 435 576 l 435 438 l 329 438 l 329 0 l 176 0 l 176 438 l 71 438 l 71 576 l 176 576 l 176 833 l 17 833 l 17 972 l 489 972 l 489 833 "},"ť":{"ha":506,"x_min":0,"x_max":0,"o":"m 67 1197 l 182 1197 l 253 1121 l 324 1197 l 439 1197 l 325 1038 l 181 1038 m 176 833 l 17 833 l 17 972 l 489 972 l 489 833 l 329 833 l 329 0 l 176 0 "},"ţ":{"ha":506,"x_min":0,"x_max":0,"o":"m 288 0 l 288 -54 b 383 -119 349 -54 383 -71 b 242 -204 383 -194 325 -204 b 108 -124 165 -204 108 -187 l 108 -110 l 211 -110 l 211 -121 b 242 -149 211 -142 226 -149 b 278 -115 267 -149 278 -139 b 226 -79 278 -89 261 -79 l 219 -79 l 219 0 l 176 0 l 176 833 l 17 833 l 17 972 l 489 972 l 489 833 l 329 833 l 329 0 "},"ț":{"ha":506,"x_min":0,"x_max":0,"o":"m 176 833 l 17 833 l 17 972 l 489 972 l 489 833 l 329 833 l 329 0 l 176 0 m 239 -187 l 189 -187 l 189 -60 l 317 -60 l 317 -174 l 257 -262 l 203 -262 "},"ṫ":{"ha":506,"x_min":0,"x_max":0,"o":"m 183 1179 l 322 1179 l 322 1038 l 183 1038 m 176 833 l 17 833 l 17 972 l 489 972 l 489 833 l 329 833 l 329 0 l 176 0 "},"u":{"ha":558,"x_min":0,"x_max":0,"o":"m 279 -14 b 51 231 129 -14 51 75 l 51 972 l 204 972 l 204 219 b 282 125 204 150 233 125 b 360 219 331 125 360 150 l 360 972 l 507 972 l 507 231 b 279 -14 507 75 429 -14 "},"ú":{"ha":558,"x_min":0,"x_max":0,"o":"m 293 1197 l 460 1197 l 311 1038 l 196 1038 m 279 -14 b 51 231 129 -14 51 75 l 51 972 l 204 972 l 204 219 b 282 125 204 150 233 125 b 360 219 331 125 360 150 l 360 972 l 507 972 l 507 231 b 279 -14 507 75 429 -14 "},"ŭ":{"ha":558,"x_min":0,"x_max":0,"o":"m 278 1032 b 115 1197 174 1032 119 1094 l 206 1197 b 278 1131 213 1144 239 1131 b 353 1197 318 1131 346 1144 l 443 1197 b 278 1032 440 1094 382 1032 m 279 -14 b 51 231 129 -14 51 75 l 51 972 l 204 972 l 204 219 b 282 125 204 150 233 125 b 360 219 331 125 360 150 l 360 972 l 507 972 l 507 231 b 279 -14 507 75 429 -14 "},"û":{"ha":558,"x_min":0,"x_max":0,"o":"m 207 1197 l 351 1197 l 465 1038 l 350 1038 l 279 1114 l 208 1038 l 93 1038 m 279 -14 b 51 231 129 -14 51 75 l 51 972 l 204 972 l 204 219 b 282 125 204 150 233 125 b 360 219 331 125 360 150 l 360 972 l 507 972 l 507 231 b 279 -14 507 75 429 -14 "},"ü":{"ha":558,"x_min":0,"x_max":0,"o":"m 104 1179 l 240 1179 l 240 1038 l 104 1038 m 318 1179 l 454 1179 l 454 1038 l 318 1038 m 279 -14 b 51 231 129 -14 51 75 l 51 972 l 204 972 l 204 219 b 282 125 204 150 233 125 b 360 219 331 125 360 150 l 360 972 l 507 972 l 507 231 b 279 -14 507 75 429 -14 "},"ù":{"ha":558,"x_min":0,"x_max":0,"o":"m 99 1197 l 265 1197 l 363 1038 l 247 1038 m 279 -14 b 51 231 129 -14 51 75 l 51 972 l 204 972 l 204 219 b 282 125 204 150 233 125 b 360 219 331 125 360 150 l 360 972 l 507 972 l 507 231 b 279 -14 507 75 429 -14 "},"ű":{"ha":558,"x_min":0,"x_max":0,"o":"m 190 1197 l 344 1197 l 200 1038 l 93 1038 m 397 1197 l 551 1197 l 407 1038 l 300 1038 m 279 -14 b 51 231 129 -14 51 75 l 51 972 l 204 972 l 204 219 b 282 125 204 150 233 125 b 360 219 331 125 360 150 l 360 972 l 507 972 l 507 231 b 279 -14 507 75 429 -14 "},"ū":{"ha":558,"x_min":0,"x_max":0,"o":"m 119 1158 l 439 1158 l 439 1050 l 119 1050 m 279 -14 b 51 231 129 -14 51 75 l 51 972 l 204 972 l 204 219 b 282 125 204 150 233 125 b 360 219 331 125 360 150 l 360 972 l 507 972 l 507 231 b 279 -14 507 75 429 -14 "},"ų":{"ha":558,"x_min":0,"x_max":0,"o":"m 507 972 l 507 231 b 349 -7 507 101 453 18 b 314 -81 321 -33 314 -62 b 363 -119 314 -107 338 -119 b 413 -111 390 -119 397 -115 l 413 -189 b 318 -204 381 -201 357 -204 b 196 -118 243 -204 196 -175 b 267 -14 196 -79 219 -43 b 51 231 125 -8 51 79 l 51 972 l 204 972 l 204 219 b 282 125 204 150 233 125 b 360 219 331 125 360 150 l 360 972 "},"ů":{"ha":558,"x_min":0,"x_max":0,"o":"m 279 1022 b 156 1144 208 1022 156 1076 b 279 1267 156 1213 208 1267 b 403 1144 350 1267 403 1213 b 279 1022 403 1076 350 1022 m 279 1096 b 324 1144 304 1096 324 1115 b 279 1193 324 1174 304 1193 b 235 1144 254 1193 235 1174 b 279 1096 235 1115 254 1096 m 279 -14 b 51 231 129 -14 51 75 l 51 972 l 204 972 l 204 219 b 282 125 204 150 233 125 b 360 219 331 125 360 150 l 360 972 l 507 972 l 507 231 b 279 -14 507 75 429 -14 "},"ũ":{"ha":558,"x_min":0,"x_max":0,"o":"m 86 1076 b 213 1193 121 1154 160 1193 b 296 1167 250 1193 275 1179 b 343 1149 313 1157 326 1149 b 399 1203 365 1149 381 1164 l 472 1158 b 346 1042 438 1081 399 1042 b 263 1068 308 1042 283 1056 b 215 1086 246 1078 232 1086 b 160 1032 193 1086 178 1071 m 279 -14 b 51 231 129 -14 51 75 l 51 972 l 204 972 l 204 219 b 282 125 204 150 233 125 b 360 219 331 125 360 150 l 360 972 l 507 972 l 507 231 b 279 -14 507 75 429 -14 "},"v":{"ha":531,"x_min":0,"x_max":0,"o":"m 17 972 l 171 972 l 271 218 l 274 218 l 374 972 l 514 972 l 367 0 l 164 0 "},"w":{"ha":774,"x_min":0,"x_max":0,"o":"m 21 972 l 168 972 l 236 225 l 239 225 l 311 972 l 478 972 l 550 225 l 553 225 l 621 972 l 753 972 l 654 0 l 464 0 l 394 656 l 392 656 l 322 0 l 119 0 "},"ẃ":{"ha":774,"x_min":0,"x_max":0,"o":"m 401 1197 l 568 1197 l 419 1038 l 304 1038 m 21 972 l 168 972 l 236 225 l 239 225 l 311 972 l 478 972 l 550 225 l 553 225 l 621 972 l 753 972 l 654 0 l 464 0 l 394 656 l 392 656 l 322 0 l 119 0 "},"ŵ":{"ha":774,"x_min":0,"x_max":0,"o":"m 315 1197 l 460 1197 l 574 1038 l 458 1038 l 388 1114 l 317 1038 l 201 1038 m 21 972 l 168 972 l 236 225 l 239 225 l 311 972 l 478 972 l 550 225 l 553 225 l 621 972 l 753 972 l 654 0 l 464 0 l 394 656 l 392 656 l 322 0 l 119 0 "},"ẅ":{"ha":774,"x_min":0,"x_max":0,"o":"m 213 1179 l 349 1179 l 349 1038 l 213 1038 m 426 1179 l 563 1179 l 563 1038 l 426 1038 m 21 972 l 168 972 l 236 225 l 239 225 l 311 972 l 478 972 l 550 225 l 553 225 l 621 972 l 753 972 l 654 0 l 464 0 l 394 656 l 392 656 l 322 0 l 119 0 "},"ẁ":{"ha":774,"x_min":0,"x_max":0,"o":"m 207 1197 l 374 1197 l 471 1038 l 356 1038 m 21 972 l 168 972 l 236 225 l 239 225 l 311 972 l 478 972 l 550 225 l 553 225 l 621 972 l 753 972 l 654 0 l 464 0 l 394 656 l 392 656 l 322 0 l 119 0 "},"x":{"ha":564,"x_min":0,"x_max":0,"o":"m 192 497 l 24 972 l 185 972 l 288 658 l 290 658 l 396 972 l 540 972 l 372 497 l 549 0 l 388 0 l 276 339 l 274 339 l 160 0 l 15 0 "},"y":{"ha":547,"x_min":0,"x_max":0,"o":"m 197 414 l 13 972 l 175 972 l 279 615 l 282 615 l 386 972 l 535 972 l 350 414 l 350 0 l 197 0 "},"ý":{"ha":547,"x_min":0,"x_max":0,"o":"m 288 1197 l 454 1197 l 306 1038 l 190 1038 m 197 414 l 13 972 l 175 972 l 279 615 l 282 615 l 386 972 l 535 972 l 350 414 l 350 0 l 197 0 "},"ŷ":{"ha":547,"x_min":0,"x_max":0,"o":"m 201 1197 l 346 1197 l 460 1038 l 344 1038 l 274 1114 l 203 1038 l 88 1038 m 197 414 l 13 972 l 175 972 l 279 615 l 282 615 l 386 972 l 535 972 l 350 414 l 350 0 l 197 0 "},"ÿ":{"ha":547,"x_min":0,"x_max":0,"o":"m 99 1179 l 235 1179 l 235 1038 l 99 1038 m 313 1179 l 449 1179 l 449 1038 l 313 1038 m 197 414 l 13 972 l 175 972 l 279 615 l 282 615 l 386 972 l 535 972 l 350 414 l 350 0 l 197 0 "},"ỳ":{"ha":547,"x_min":0,"x_max":0,"o":"m 93 1197 l 260 1197 l 357 1038 l 242 1038 m 197 414 l 13 972 l 175 972 l 279 615 l 282 615 l 386 972 l 535 972 l 350 414 l 350 0 l 197 0 "},"z":{"ha":503,"x_min":0,"x_max":0,"o":"m 26 136 l 310 833 l 40 833 l 40 972 l 474 972 l 474 836 l 190 139 l 474 139 l 474 0 l 26 0 "},"ź":{"ha":503,"x_min":0,"x_max":0,"o":"m 271 1197 l 438 1197 l 289 1038 l 174 1038 m 26 136 l 310 833 l 40 833 l 40 972 l 474 972 l 474 836 l 190 139 l 474 139 l 474 0 l 26 0 "},"ž":{"ha":503,"x_min":0,"x_max":0,"o":"m 71 1197 l 186 1197 l 257 1121 l 328 1197 l 443 1197 l 329 1038 l 185 1038 m 26 136 l 310 833 l 40 833 l 40 972 l 474 972 l 474 836 l 190 139 l 474 139 l 474 0 l 26 0 "},"ż":{"ha":503,"x_min":0,"x_max":0,"o":"m 188 1179 l 326 1179 l 326 1038 l 188 1038 m 26 136 l 310 833 l 40 833 l 40 972 l 474 972 l 474 836 l 190 139 l 474 139 l 474 0 l 26 0 "},"ª":{"ha":389,"x_min":0,"x_max":0,"o":"m 150 463 b 42 596 78 463 42 511 l 42 601 b 239 772 42 714 103 767 l 239 846 b 197 897 239 882 225 897 b 150 838 165 897 150 882 l 150 819 l 58 819 l 58 832 b 199 986 58 929 100 986 b 336 832 292 986 336 929 l 336 469 l 254 469 l 250 536 l 247 536 b 150 463 225 488 193 463 m 185 551 b 239 601 213 551 232 564 l 239 700 b 139 617 171 697 139 671 l 139 604 b 185 551 139 567 157 551 m 42 392 l 336 392 l 336 297 l 42 297 "},"º":{"ha":392,"x_min":0,"x_max":0,"o":"m 196 463 b 49 617 100 463 49 519 l 49 832 b 196 986 49 929 100 986 b 343 832 292 986 343 929 l 343 617 b 196 463 343 519 292 463 m 196 551 b 246 611 226 551 246 567 l 246 838 b 196 897 246 882 226 897 b 146 838 164 897 146 882 l 146 611 b 196 551 146 567 164 551 m 49 392 l 343 392 l 343 297 l 49 297 "},"Δ":{"ha":557,"x_min":0,"x_max":0,"o":"m 175 972 l 382 972 l 540 0 l 17 0 m 367 139 l 274 789 l 271 789 l 178 139 "},"Ω":{"ha":558,"x_min":0,"x_max":0,"o":"m 47 139 l 158 139 l 158 142 b 47 469 81 228 47 314 l 47 742 b 279 986 47 897 129 986 b 511 742 429 986 511 897 l 511 469 b 400 142 511 315 478 228 l 400 139 l 511 139 l 511 0 l 301 0 l 301 139 b 358 404 347 219 358 289 l 358 751 b 279 847 358 821 328 847 b 200 751 231 847 200 821 l 200 404 b 257 139 200 289 211 219 l 257 0 l 47 0 "},"μ":{"ha":563,"x_min":0,"x_max":0,"o":"m 57 694 l 210 694 l 210 207 b 282 128 210 151 236 128 b 363 224 328 128 363 154 l 363 694 l 515 694 l 515 0 l 376 0 l 376 72 b 243 -6 349 24 300 -6 l 210 -6 l 210 -222 l 57 -222 "},"π":{"ha":628,"x_min":0,"x_max":0,"o":"m 103 556 l 19 556 l 19 694 l 608 694 l 608 556 l 525 556 l 525 0 l 372 0 l 372 556 l 256 556 l 256 0 l 103 0 "},"₀":{"ha":392,"x_min":0,"x_max":0,"o":"m 196 -104 b 49 51 100 -104 49 -49 l 49 385 b 196 540 49 485 100 540 b 343 385 292 540 343 485 l 343 51 b 196 -104 343 -49 292 -104 m 196 -17 b 246 44 226 -17 246 1 l 246 392 b 196 453 246 435 226 453 b 146 392 164 453 146 435 l 146 44 b 196 -17 146 1 164 -17 "},"₁":{"ha":392,"x_min":0,"x_max":0,"o":"m 183 381 l 81 381 l 81 449 b 217 526 161 449 192 467 l 281 526 l 281 -90 l 183 -90 "},"₂":{"ha":392,"x_min":0,"x_max":0,"o":"m 53 -21 b 149 200 53 68 75 122 b 244 388 221 275 244 324 b 194 453 244 432 229 453 b 144 392 161 453 144 432 l 144 335 l 53 335 l 53 386 b 197 540 53 486 103 540 b 342 390 292 540 342 486 b 222 153 342 313 313 249 b 149 14 163 89 149 58 l 149 -3 l 333 -3 l 333 -90 l 53 -90 "},"₃":{"ha":392,"x_min":0,"x_max":0,"o":"m 192 -104 b 47 51 96 -104 47 -49 l 47 103 l 139 103 l 139 44 b 189 -17 139 1 158 -17 b 239 54 219 -17 239 -1 l 239 110 b 176 188 239 168 219 188 l 143 188 l 143 275 l 181 275 b 239 342 217 275 239 293 l 239 382 b 189 453 239 438 219 453 b 139 392 158 453 139 435 l 139 354 l 47 354 l 47 385 b 192 540 47 485 96 540 b 336 385 288 540 336 485 l 336 358 b 268 235 336 294 315 256 l 268 232 b 336 103 317 211 336 165 l 336 51 b 192 -104 336 -49 288 -104 "},"₄":{"ha":392,"x_min":0,"x_max":0,"o":"m 217 21 l 32 21 l 32 108 l 208 526 l 314 526 l 314 108 l 360 108 l 360 21 l 314 21 l 314 -90 l 217 -90 m 218 108 l 218 351 l 215 351 l 119 108 "},"₅":{"ha":392,"x_min":0,"x_max":0,"o":"m 197 -104 b 53 51 101 -104 53 -47 l 53 86 l 144 86 l 144 46 b 194 -14 144 1 164 -14 b 244 46 225 -14 244 1 l 244 185 b 194 246 244 229 225 246 b 144 185 164 246 144 229 l 144 172 l 53 172 l 71 526 l 326 526 l 326 439 l 156 439 l 149 289 l 151 289 b 235 335 168 318 196 335 b 342 193 306 335 342 283 l 342 51 b 197 -104 342 -47 293 -104 "},"₆":{"ha":392,"x_min":0,"x_max":0,"o":"m 199 -104 b 51 51 103 -104 51 -47 l 51 381 b 200 540 51 483 99 540 b 344 385 294 540 344 483 l 344 376 l 253 376 l 253 392 b 203 453 253 436 233 453 b 149 376 168 453 149 436 l 149 249 l 151 249 b 239 301 168 283 194 301 b 346 161 310 301 346 251 l 346 51 b 199 -104 346 -47 294 -104 m 199 -17 b 249 43 229 -17 249 -1 l 249 153 b 199 214 249 197 229 214 b 149 153 168 214 149 197 l 149 43 b 199 -17 149 -1 168 -17 "},"₇":{"ha":392,"x_min":0,"x_max":0,"o":"m 246 439 l 49 439 l 49 526 l 340 526 l 340 442 l 186 -90 l 89 -90 "},"₈":{"ha":392,"x_min":0,"x_max":0,"o":"m 196 -104 b 44 51 99 -104 44 -47 l 44 100 b 104 228 44 160 63 204 l 104 231 b 44 353 64 253 44 293 l 44 385 b 196 540 44 483 99 540 b 347 385 293 540 347 483 l 347 353 b 288 231 347 293 328 253 l 288 228 b 347 100 329 204 347 160 l 347 51 b 196 -104 347 -47 293 -104 m 196 275 b 250 340 232 275 250 297 l 250 388 b 196 453 250 431 232 453 b 142 388 160 453 142 431 l 142 340 b 196 275 142 297 160 275 m 196 -17 b 250 53 232 -17 250 6 l 250 118 b 196 188 250 165 232 188 b 142 118 160 188 142 165 l 142 53 b 196 -17 142 6 160 -17 "},"₉":{"ha":392,"x_min":0,"x_max":0,"o":"m 192 -104 b 47 51 97 -104 47 -47 l 47 60 l 139 60 l 139 44 b 189 -17 139 0 158 -17 b 243 60 224 -17 243 0 l 243 188 l 240 188 b 153 135 224 153 197 135 b 46 275 82 135 46 185 l 46 385 b 193 540 46 483 97 540 b 340 385 289 540 340 483 l 340 56 b 192 -104 340 -47 293 -104 m 193 222 b 243 283 224 222 243 239 l 243 393 b 193 453 243 438 224 453 b 143 393 163 453 143 438 l 143 283 b 193 222 143 239 163 222 "},"⁰":{"ha":392,"x_min":0,"x_max":0,"o":"m 196 474 b 49 629 100 474 49 529 l 49 963 b 196 1118 49 1063 100 1118 b 343 963 292 1118 343 1063 l 343 629 b 196 474 343 529 292 474 m 196 561 b 246 622 226 561 246 579 l 246 969 b 196 1031 246 1013 226 1031 b 146 969 164 1031 146 1013 l 146 622 b 196 561 146 579 164 561 "},"¹":{"ha":392,"x_min":0,"x_max":0,"o":"m 183 958 l 81 958 l 81 1026 b 217 1104 161 1026 192 1044 l 281 1104 l 281 488 l 183 488 "},"²":{"ha":392,"x_min":0,"x_max":0,"o":"m 53 557 b 149 778 53 646 75 700 b 244 965 221 853 244 901 b 194 1031 244 1010 229 1031 b 144 969 161 1031 144 1010 l 144 913 l 53 913 l 53 964 b 197 1118 53 1064 103 1118 b 342 968 292 1118 342 1064 b 222 731 342 890 313 826 b 149 592 163 667 149 636 l 149 575 l 333 575 l 333 488 l 53 488 "},"³":{"ha":392,"x_min":0,"x_max":0,"o":"m 192 474 b 47 629 96 474 47 529 l 47 681 l 139 681 l 139 622 b 189 561 139 579 158 561 b 239 632 219 561 239 576 l 239 688 b 176 765 239 746 219 765 l 143 765 l 143 853 l 181 853 b 239 919 217 853 239 871 l 239 960 b 189 1031 239 1015 219 1031 b 139 969 158 1031 139 1013 l 139 932 l 47 932 l 47 963 b 192 1118 47 1063 96 1118 b 336 963 288 1118 336 1063 l 336 936 b 268 813 336 872 315 833 l 268 810 b 336 681 317 789 336 743 l 336 629 b 192 474 336 529 288 474 "},"⁴":{"ha":392,"x_min":0,"x_max":0,"o":"m 217 599 l 32 599 l 32 686 l 208 1104 l 314 1104 l 314 686 l 360 686 l 360 599 l 314 599 l 314 488 l 217 488 m 218 686 l 218 929 l 215 929 l 119 686 "},"⁵":{"ha":392,"x_min":0,"x_max":0,"o":"m 197 474 b 53 629 101 474 53 531 l 53 664 l 144 664 l 144 624 b 194 564 144 579 164 564 b 244 624 225 564 244 579 l 244 763 b 194 824 244 807 225 824 b 144 763 164 824 144 807 l 144 750 l 53 750 l 71 1104 l 326 1104 l 326 1017 l 156 1017 l 149 867 l 151 867 b 235 913 168 896 196 913 b 342 771 306 913 342 861 l 342 629 b 197 474 342 531 293 474 "},"⁶":{"ha":392,"x_min":0,"x_max":0,"o":"m 199 474 b 51 629 103 474 51 531 l 51 958 b 200 1118 51 1061 99 1118 b 344 963 294 1118 344 1061 l 344 954 l 253 954 l 253 969 b 203 1031 253 1014 233 1031 b 149 954 168 1031 149 1014 l 149 826 l 151 826 b 239 879 168 861 194 879 b 346 739 310 879 346 829 l 346 629 b 199 474 346 531 294 474 m 199 561 b 249 621 229 561 249 576 l 249 731 b 199 792 249 775 229 792 b 149 731 168 792 149 775 l 149 621 b 199 561 149 576 168 561 "},"⁷":{"ha":392,"x_min":0,"x_max":0,"o":"m 246 1017 l 49 1017 l 49 1104 l 340 1104 l 340 1019 l 186 488 l 89 488 "},"⁸":{"ha":392,"x_min":0,"x_max":0,"o":"m 196 474 b 44 629 99 474 44 531 l 44 678 b 104 806 44 738 63 782 l 104 808 b 44 931 64 831 44 871 l 44 963 b 196 1118 44 1061 99 1118 b 347 963 293 1118 347 1061 l 347 931 b 288 808 347 871 328 831 l 288 806 b 347 678 329 782 347 738 l 347 629 b 196 474 347 531 293 474 m 196 853 b 250 918 232 853 250 875 l 250 965 b 196 1031 250 1008 232 1031 b 142 965 160 1031 142 1008 l 142 918 b 196 853 142 875 160 853 m 196 561 b 250 631 232 561 250 583 l 250 696 b 196 765 250 743 232 765 b 142 696 160 765 142 743 l 142 631 b 196 561 142 583 160 561 "},"⁹":{"ha":392,"x_min":0,"x_max":0,"o":"m 192 474 b 47 629 97 474 47 531 l 47 638 l 139 638 l 139 622 b 189 561 139 578 158 561 b 243 638 224 561 243 578 l 243 765 l 240 765 b 153 713 224 731 197 713 b 46 853 82 713 46 763 l 46 963 b 193 1118 46 1061 97 1118 b 340 963 289 1118 340 1061 l 340 633 b 192 474 340 531 293 474 m 193 800 b 243 861 224 800 243 817 l 243 971 b 193 1031 243 1015 224 1031 b 143 971 163 1031 143 1015 l 143 861 b 193 800 143 817 163 800 "},"⁄":{"ha":124,"x_min":0,"x_max":0,"o":"m 201 972 l 299 972 l -78 0 l -175 0 "},"½":{"ha":907,"x_min":0,"x_max":0,"o":"m 183 826 l 81 826 l 81 894 b 217 972 161 894 192 913 l 281 972 l 281 356 l 183 356 m 593 972 l 690 972 l 314 0 l 217 0 m 568 69 b 664 290 568 158 590 213 b 760 478 736 365 760 414 b 710 543 760 522 744 543 b 660 482 676 543 660 522 l 660 425 l 568 425 l 568 476 b 713 631 568 576 618 631 b 857 481 807 631 857 576 b 738 243 857 403 828 339 b 664 104 678 179 664 149 l 664 88 l 849 88 l 849 0 l 568 0 "},"⅓":{"ha":907,"x_min":0,"x_max":0,"o":"m 183 826 l 81 826 l 81 894 b 217 972 161 894 192 913 l 281 972 l 281 356 l 183 356 m 593 972 l 690 972 l 314 0 l 217 0 m 707 -14 b 563 142 611 -14 563 42 l 563 193 l 654 193 l 654 135 b 704 74 654 92 674 74 b 754 144 735 74 754 89 l 754 200 b 692 278 754 258 735 278 l 658 278 l 658 365 l 696 365 b 754 432 732 365 754 383 l 754 472 b 704 543 754 528 735 543 b 654 482 674 543 654 525 l 654 444 l 563 444 l 563 475 b 707 631 563 575 611 631 b 851 475 803 631 851 575 l 851 449 b 783 325 851 385 831 346 l 783 322 b 851 193 832 301 851 256 l 851 142 b 707 -14 851 42 803 -14 "},"⅔":{"ha":907,"x_min":0,"x_max":0,"o":"m 53 425 b 149 646 53 514 75 568 b 244 833 221 721 244 769 b 194 899 244 878 229 899 b 144 838 161 899 144 878 l 144 781 l 53 781 l 53 832 b 197 986 53 932 103 986 b 342 836 292 986 342 932 b 222 599 342 758 313 694 b 149 460 163 535 149 504 l 149 443 l 333 443 l 333 356 l 53 356 m 593 972 l 690 972 l 314 0 l 217 0 m 707 -14 b 563 142 611 -14 563 42 l 563 193 l 654 193 l 654 135 b 704 74 654 92 674 74 b 754 144 735 74 754 89 l 754 200 b 692 278 754 258 735 278 l 658 278 l 658 365 l 696 365 b 754 432 732 365 754 383 l 754 472 b 704 543 754 528 735 543 b 654 482 674 543 654 525 l 654 444 l 563 444 l 563 475 b 707 631 563 575 611 631 b 851 475 803 631 851 575 l 851 449 b 783 325 851 385 831 346 l 783 322 b 851 193 832 301 851 256 l 851 142 b 707 -14 851 42 803 -14 "},"¼":{"ha":907,"x_min":0,"x_max":0,"o":"m 183 826 l 81 826 l 81 894 b 217 972 161 894 192 913 l 281 972 l 281 356 l 183 356 m 593 972 l 690 972 l 314 0 l 217 0 m 732 111 l 547 111 l 547 199 l 724 617 l 829 617 l 829 199 l 875 199 l 875 111 l 829 111 l 829 0 l 732 0 m 733 199 l 733 442 l 731 442 l 635 199 "},"¾":{"ha":907,"x_min":0,"x_max":0,"o":"m 192 342 b 47 497 96 342 47 397 l 47 549 l 139 549 l 139 490 b 189 429 139 447 158 429 b 239 500 219 429 239 444 l 239 556 b 176 633 239 614 219 633 l 143 633 l 143 721 l 181 721 b 239 788 217 721 239 739 l 239 828 b 189 899 239 883 219 899 b 139 838 158 899 139 881 l 139 800 l 47 800 l 47 831 b 192 986 47 931 96 986 b 336 831 288 986 336 931 l 336 804 b 268 681 336 740 315 701 l 268 678 b 336 549 317 657 336 611 l 336 497 b 192 342 336 397 288 342 m 593 972 l 690 972 l 314 0 l 217 0 m 732 111 l 547 111 l 547 199 l 724 617 l 829 617 l 829 199 l 875 199 l 875 111 l 829 111 l 829 0 l 732 0 m 733 199 l 733 442 l 731 442 l 635 199 "},"⅛":{"ha":907,"x_min":0,"x_max":0,"o":"m 183 826 l 81 826 l 81 894 b 217 972 161 894 192 913 l 281 972 l 281 356 l 183 356 m 593 972 l 690 972 l 314 0 l 217 0 m 711 -14 b 560 142 614 -14 560 43 l 560 190 b 619 318 560 250 578 294 l 619 321 b 560 443 579 343 560 383 l 560 475 b 711 631 560 574 614 631 b 863 475 808 631 863 574 l 863 443 b 803 321 863 383 843 343 l 803 318 b 863 190 844 294 863 250 l 863 142 b 711 -14 863 43 808 -14 m 711 365 b 765 431 747 365 765 388 l 765 478 b 711 543 765 521 747 543 b 657 478 675 543 657 521 l 657 431 b 711 365 657 388 675 365 m 711 74 b 765 143 747 74 765 96 l 765 208 b 711 278 765 256 747 278 b 657 208 675 278 657 256 l 657 143 b 711 74 657 96 675 74 "},"⅜":{"ha":907,"x_min":0,"x_max":0,"o":"m 192 342 b 47 497 96 342 47 397 l 47 549 l 139 549 l 139 490 b 189 429 139 447 158 429 b 239 500 219 429 239 444 l 239 556 b 176 633 239 614 219 633 l 143 633 l 143 721 l 181 721 b 239 788 217 721 239 739 l 239 828 b 189 899 239 883 219 899 b 139 838 158 899 139 881 l 139 800 l 47 800 l 47 831 b 192 986 47 931 96 986 b 336 831 288 986 336 931 l 336 804 b 268 681 336 740 315 701 l 268 678 b 336 549 317 657 336 611 l 336 497 b 192 342 336 397 288 342 m 593 972 l 690 972 l 314 0 l 217 0 m 711 -14 b 560 142 614 -14 560 43 l 560 190 b 619 318 560 250 578 294 l 619 321 b 560 443 579 343 560 383 l 560 475 b 711 631 560 574 614 631 b 863 475 808 631 863 574 l 863 443 b 803 321 863 383 843 343 l 803 318 b 863 190 844 294 863 250 l 863 142 b 711 -14 863 43 808 -14 m 711 365 b 765 431 747 365 765 388 l 765 478 b 711 543 765 521 747 543 b 657 478 675 543 657 521 l 657 431 b 711 365 657 388 675 365 m 711 74 b 765 143 747 74 765 96 l 765 208 b 711 278 765 256 747 278 b 657 208 675 278 657 256 l 657 143 b 711 74 657 96 675 74 "},"⅝":{"ha":907,"x_min":0,"x_max":0,"o":"m 197 342 b 53 497 101 342 53 399 l 53 532 l 144 532 l 144 492 b 194 432 144 447 164 432 b 244 492 225 432 244 447 l 244 631 b 194 692 244 675 225 692 b 144 631 164 692 144 675 l 144 618 l 53 618 l 71 972 l 326 972 l 326 885 l 156 885 l 149 735 l 151 735 b 235 781 168 764 196 781 b 342 639 306 781 342 729 l 342 497 b 197 342 342 399 293 342 m 593 972 l 690 972 l 314 0 l 217 0 m 711 -14 b 560 142 614 -14 560 43 l 560 190 b 619 318 560 250 578 294 l 619 321 b 560 443 579 343 560 383 l 560 475 b 711 631 560 574 614 631 b 863 475 808 631 863 574 l 863 443 b 803 321 863 383 843 343 l 803 318 b 863 190 844 294 863 250 l 863 142 b 711 -14 863 43 808 -14 m 711 365 b 765 431 747 365 765 388 l 765 478 b 711 543 765 521 747 543 b 657 478 675 543 657 521 l 657 431 b 711 365 657 388 675 365 m 711 74 b 765 143 747 74 765 96 l 765 208 b 711 278 765 256 747 278 b 657 208 675 278 657 256 l 657 143 b 711 74 657 96 675 74 "},"⅞":{"ha":907,"x_min":0,"x_max":0,"o":"m 246 885 l 49 885 l 49 972 l 340 972 l 340 888 l 186 356 l 89 356 m 593 972 l 690 972 l 314 0 l 217 0 m 711 -14 b 560 142 614 -14 560 43 l 560 190 b 619 318 560 250 578 294 l 619 321 b 560 443 579 343 560 383 l 560 475 b 711 631 560 574 614 631 b 863 475 808 631 863 574 l 863 443 b 803 321 863 383 843 343 l 803 318 b 863 190 844 294 863 250 l 863 142 b 711 -14 863 43 808 -14 m 711 365 b 765 431 747 365 765 388 l 765 478 b 711 543 765 521 747 543 b 657 478 675 543 657 521 l 657 431 b 711 365 657 388 675 365 m 711 74 b 765 143 747 74 765 96 l 765 208 b 711 278 765 256 747 278 b 657 208 675 278 657 256 l 657 143 b 711 74 657 96 675 74 "},"*":{"ha":586,"x_min":0,"x_max":0,"o":"m 86 528 l 233 683 l 21 729 l 60 847 l 258 753 l 231 972 l 356 972 l 328 753 l 526 847 l 565 729 l 353 683 l 500 528 l 400 454 l 293 642 l 186 454 "},"\\":{"ha":540,"x_min":0,"x_max":0,"o":"m 13 972 l 144 972 l 528 0 l 396 0 "},"·":{"ha":261,"x_min":0,"x_max":0,"o":"m 57 560 l 204 560 l 204 413 l 57 413 "},"•":{"ha":417,"x_min":0,"x_max":0,"o":"m 208 326 b 49 486 119 326 49 397 b 208 646 49 575 119 646 b 368 486 297 646 368 575 b 208 326 368 397 297 326 "},":":{"ha":261,"x_min":0,"x_max":0,"o":"m 57 676 l 204 676 l 204 529 l 57 529 m 57 147 l 204 147 l 204 0 l 57 0 "},",":{"ha":261,"x_min":0,"x_max":0,"o":"m 107 0 l 57 0 l 57 147 l 204 147 l 204 15 l 128 -167 l 57 -167 "},"…":{"ha":694,"x_min":0,"x_max":0,"o":"m 43 147 l 190 147 l 190 0 l 43 0 m 274 147 l 421 147 l 421 0 l 274 0 m 504 147 l 651 147 l 651 0 l 504 0 "},"!":{"ha":292,"x_min":0,"x_max":0,"o":"m 69 567 l 69 972 l 222 972 l 222 567 l 203 257 l 89 257 m 72 147 l 219 147 l 219 0 l 72 0 "},"¡":{"ha":292,"x_min":0,"x_max":0,"o":"m 72 972 l 219 972 l 219 825 l 72 825 m 69 406 l 89 715 l 203 715 l 222 406 l 222 0 l 69 0 "},"#":{"ha":572,"x_min":0,"x_max":0,"o":"m 90 278 l 22 278 l 33 386 l 101 386 l 128 640 l 58 640 l 69 749 l 139 749 l 163 972 l 283 972 l 260 749 l 358 749 l 382 972 l 503 972 l 479 749 l 550 749 l 539 640 l 468 640 l 442 386 l 513 386 l 501 278 l 431 278 l 401 0 l 281 0 l 310 278 l 211 278 l 182 0 l 61 0 m 321 386 l 347 640 l 249 640 l 222 386 "},".":{"ha":261,"x_min":0,"x_max":0,"o":"m 57 147 l 204 147 l 204 0 l 57 0 "},"?":{"ha":504,"x_min":0,"x_max":0,"o":"m 163 315 b 238 521 163 379 178 436 b 324 751 306 618 324 678 b 247 847 324 821 296 847 b 171 751 199 847 171 821 l 171 646 l 26 646 l 26 742 b 250 986 26 897 101 986 b 476 742 399 986 476 897 b 375 486 476 657 450 586 b 296 310 315 406 296 358 l 296 257 l 163 257 m 156 147 l 303 147 l 303 0 l 156 0 "},"¿":{"ha":504,"x_min":0,"x_max":0,"o":"m 349 825 l 201 825 l 201 972 l 349 972 m 342 657 b 267 451 342 593 326 536 b 181 221 199 354 181 294 b 257 125 181 151 208 125 b 333 221 306 125 333 151 l 333 326 l 478 326 l 478 231 b 254 -14 478 75 403 -14 b 28 231 106 -14 28 75 b 129 486 28 315 54 386 b 208 663 189 567 208 614 l 208 715 l 342 715 "},"\"":{"ha":467,"x_min":0,"x_max":0,"o":"m 53 972 l 208 972 l 171 658 l 89 658 m 258 972 l 414 972 l 376 658 l 294 658 "},"'":{"ha":261,"x_min":0,"x_max":0,"o":"m 53 972 l 208 972 l 171 658 l 89 658 "},";":{"ha":261,"x_min":0,"x_max":0,"o":"m 57 676 l 204 676 l 204 529 l 57 529 m 107 0 l 57 0 l 57 147 l 204 147 l 204 15 l 119 -167 l 49 -167 "},"/":{"ha":540,"x_min":0,"x_max":0,"o":"m 396 972 l 528 972 l 144 0 l 13 0 "},"_":{"ha":417,"x_min":0,"x_max":0,"o":"m 0 -14 l 417 -14 l 417 -125 l 0 -125 "},"{":{"ha":383,"x_min":0,"x_max":0,"o":"m 271 -69 b 117 85 185 -69 117 -21 l 117 340 b 29 424 117 404 99 424 l 29 549 b 117 632 99 549 117 568 l 117 888 b 271 1042 117 993 185 1042 l 349 1042 l 349 917 l 326 917 b 253 818 278 917 253 894 l 253 610 b 168 488 253 560 235 507 l 168 485 b 253 363 235 465 253 413 l 253 154 b 326 56 253 78 278 56 l 349 56 l 349 -69 l 271 -69 "},"}":{"ha":383,"x_min":0,"x_max":0,"o":"m 35 56 l 57 56 b 131 154 106 56 131 78 l 131 363 b 215 485 131 413 149 465 l 215 488 b 131 610 149 507 131 560 l 131 818 b 57 917 131 894 106 917 l 35 917 l 35 1042 l 113 1042 b 267 888 199 1042 267 993 l 267 632 b 354 549 267 568 285 549 l 354 424 b 267 340 285 424 267 404 l 267 85 b 113 -69 267 -21 199 -69 l 35 -69 "},"[":{"ha":383,"x_min":0,"x_max":0,"o":"m 82 1042 l 335 1042 l 335 917 l 235 917 l 235 56 l 335 56 l 335 -69 l 82 -69 "},"]":{"ha":383,"x_min":0,"x_max":0,"o":"m 49 56 l 149 56 l 149 917 l 49 917 l 49 1042 l 301 1042 l 301 -69 l 49 -69 "},"(":{"ha":383,"x_min":0,"x_max":0,"o":"m 288 -69 b 74 143 135 -69 74 -12 l 74 829 b 288 1042 74 985 135 1042 l 335 1042 l 335 917 l 297 917 b 226 829 249 917 226 899 l 226 143 b 297 56 226 74 249 56 l 335 56 l 335 -69 l 288 -69 "},")":{"ha":383,"x_min":0,"x_max":0,"o":"m 49 56 l 86 56 b 157 143 135 56 157 74 l 157 829 b 86 917 157 899 135 917 l 49 917 l 49 1042 l 96 1042 b 310 829 249 1042 310 985 l 310 143 b 96 -69 310 -12 249 -69 l 49 -69 "},"—":{"ha":694,"x_min":0,"x_max":0,"o":"m 0 549 l 694 549 l 694 424 l 0 424 "},"–":{"ha":417,"x_min":0,"x_max":0,"o":"m 0 549 l 417 549 l 417 424 l 0 424 "},"‒":{"ha":556,"x_min":0,"x_max":0,"o":"m 0 549 l 556 549 l 556 424 l 0 424 "},"-":{"ha":375,"x_min":0,"x_max":0,"o":"m 35 556 l 340 556 l 340 417 l 35 417 "},"­":{"ha":375,"x_min":0,"x_max":0,"o":"m 35 556 l 340 556 l 340 417 l 35 417 "},"«":{"ha":467,"x_min":0,"x_max":0,"o":"m 19 481 l 126 633 l 238 633 l 158 481 l 238 319 l 126 319 m 226 481 l 332 633 l 443 633 l 365 481 l 443 319 l 332 319 "},"»":{"ha":465,"x_min":0,"x_max":0,"o":"m 24 319 l 101 481 l 24 633 l 135 633 l 240 481 l 135 319 m 229 319 l 307 481 l 229 633 l 340 633 l 446 481 l 340 319 "},"‹":{"ha":261,"x_min":0,"x_max":0,"o":"m 19 481 l 126 633 l 238 633 l 158 481 l 238 319 l 126 319 "},"›":{"ha":261,"x_min":0,"x_max":0,"o":"m 24 319 l 103 481 l 24 633 l 135 633 l 242 481 l 135 319 "},"„":{"ha":467,"x_min":0,"x_max":0,"o":"m 107 0 l 57 0 l 57 147 l 204 147 l 204 15 l 119 -167 l 49 -167 m 313 0 l 263 0 l 263 147 l 410 147 l 410 15 l 325 -167 l 254 -167 "},"“":{"ha":467,"x_min":0,"x_max":0,"o":"m 57 790 l 142 972 l 213 972 l 154 806 l 204 806 l 204 658 l 57 658 m 263 790 l 347 972 l 418 972 l 360 806 l 410 806 l 410 658 l 263 658 "},"”":{"ha":467,"x_min":0,"x_max":0,"o":"m 107 825 l 57 825 l 57 972 l 204 972 l 204 840 l 119 658 l 49 658 m 313 825 l 263 825 l 263 972 l 410 972 l 410 840 l 325 658 l 254 658 "},"‘":{"ha":261,"x_min":0,"x_max":0,"o":"m 57 790 l 142 972 l 213 972 l 154 806 l 204 806 l 204 658 l 57 658 "},"’":{"ha":261,"x_min":0,"x_max":0,"o":"m 107 825 l 57 825 l 57 972 l 204 972 l 204 840 l 119 658 l 49 658 "},"‚":{"ha":261,"x_min":0,"x_max":0,"o":"m 108 0 l 58 0 l 58 147 l 206 147 l 206 15 l 129 -167 l 58 -167 "}," ":{"ha":694,"x_min":0,"x_max":0,"o":""}," ":{"ha":417,"x_min":0,"x_max":0,"o":""}," ":{"ha":556,"x_min":0,"x_max":0,"o":""}," ":{"ha":261,"x_min":0,"x_max":0,"o":""}," ":{"ha":222,"x_min":0,"x_max":0,"o":""},"​":{"ha":0,"x_min":0,"x_max":0,"o":""},"\r":{"ha":222,"x_min":0,"x_max":0,"o":""},"¢":{"ha":556,"x_min":0,"x_max":0,"o":"m 364 617 l 364 671 b 288 761 364 735 333 761 b 211 671 242 761 211 735 l 211 300 b 288 211 211 236 242 211 b 364 300 333 211 364 236 l 364 390 l 508 390 l 508 311 b 344 78 508 183 451 100 l 344 -28 l 219 -28 l 219 79 b 58 311 114 101 58 185 l 58 661 b 219 893 58 788 114 871 l 219 986 l 344 986 l 344 894 b 508 661 451 872 508 789 l 508 617 "},"¤":{"ha":556,"x_min":0,"x_max":0,"o":"m 43 319 l 124 393 b 99 486 107 419 99 453 b 124 579 99 519 107 553 l 43 653 l 111 721 l 185 639 b 278 665 211 656 243 665 b 371 639 313 665 344 656 l 444 721 l 513 653 l 432 579 b 457 486 449 553 457 519 b 432 393 457 453 449 419 l 513 319 l 444 251 l 371 333 b 278 307 344 317 313 307 b 185 333 243 307 211 317 l 111 251 m 278 413 b 351 486 322 413 351 442 b 278 560 351 531 322 560 b 204 486 233 560 204 531 b 278 413 204 442 233 413 "},"$":{"ha":556,"x_min":0,"x_max":0,"o":"m 215 21 b 50 250 106 43 50 128 l 50 314 l 194 314 l 194 240 b 274 156 194 181 225 156 b 353 243 322 156 353 181 b 222 443 353 313 325 363 b 54 725 97 542 54 619 b 215 950 54 843 108 926 l 215 1035 l 340 1035 l 340 950 b 504 722 449 928 504 844 l 504 694 l 360 694 l 360 732 b 283 818 360 792 332 818 b 207 735 235 818 207 792 b 338 540 207 671 235 622 b 506 253 463 440 506 364 b 340 21 506 128 449 43 l 340 -76 l 215 -76 "},"€":{"ha":556,"x_min":0,"x_max":0,"o":"m 294 -14 b 71 231 144 -14 71 75 l 71 389 l 32 389 l 32 465 l 71 465 l 71 542 l 32 542 l 32 618 l 71 618 l 71 742 b 294 986 71 897 144 986 b 518 742 444 986 518 897 l 518 696 l 374 696 l 374 751 b 299 847 374 821 347 847 b 224 751 250 847 224 821 l 224 618 l 438 618 l 438 542 l 224 542 l 224 465 l 438 465 l 438 389 l 224 389 l 224 219 b 299 125 224 150 250 125 b 374 219 347 125 374 150 l 374 311 l 518 311 l 518 231 b 294 -14 518 75 444 -14 "},"ƒ":{"ha":556,"x_min":0,"x_max":0,"o":"m 124 35 l 26 35 l 26 174 l 82 174 l 82 799 l 26 799 l 26 938 l 124 938 l 124 1035 l 210 1035 l 210 938 l 290 938 l 290 1035 l 376 1035 l 376 926 b 511 721 469 901 511 831 l 511 700 b 413 506 511 600 481 538 l 413 503 b 526 296 494 471 526 399 l 526 265 b 376 44 526 144 475 69 l 376 -76 l 290 -76 l 290 35 l 210 35 l 210 -76 l 124 -76 m 267 563 b 358 665 324 563 358 588 l 358 699 b 281 799 358 768 335 799 l 235 799 l 235 563 m 294 174 b 374 269 346 174 374 197 l 374 306 b 275 424 374 396 344 424 l 235 424 l 235 174 "},"₹":{"ha":556,"x_min":0,"x_max":0,"o":"m 39 435 l 39 553 l 167 553 b 283 644 243 553 283 575 l 39 644 l 39 763 l 283 763 b 167 854 283 832 243 854 l 39 854 l 39 972 l 517 972 l 517 854 l 400 854 b 435 763 418 828 429 797 l 517 763 l 517 644 l 435 644 b 222 435 424 510 313 435 l 525 0 l 340 0 "},"£":{"ha":556,"x_min":0,"x_max":0,"o":"m 49 131 b 181 331 133 169 181 250 b 176 375 181 346 179 361 l 49 375 l 49 493 l 151 493 b 63 765 100 586 63 649 b 288 986 63 893 139 986 b 513 742 436 986 513 897 l 513 685 l 368 685 l 368 751 b 292 847 368 821 340 847 b 215 751 243 847 215 821 b 293 493 215 642 272 551 l 463 493 l 463 375 l 319 375 b 224 139 319 293 306 213 l 503 139 l 503 0 l 49 0 "},"¥":{"ha":556,"x_min":0,"x_max":0,"o":"m 201 156 l 78 156 l 78 251 l 201 251 l 201 353 l 78 353 l 78 449 l 192 449 l 15 972 l 178 972 l 283 610 l 286 610 l 392 972 l 540 972 l 364 449 l 483 449 l 483 353 l 354 353 l 354 251 l 483 251 l 483 156 l 354 156 l 354 0 l 201 0 "},"∙":{"ha":306,"x_min":0,"x_max":0,"o":"m 64 575 l 242 575 l 242 397 l 64 397 "},"∕":{"ha":556,"x_min":0,"x_max":0,"o":"m 415 972 l 532 972 l 140 0 l 24 0 "},"+":{"ha":556,"x_min":0,"x_max":0,"o":"m 224 432 l 38 432 l 38 540 l 224 540 l 224 728 l 332 728 l 332 540 l 518 540 l 518 432 l 332 432 l 332 242 l 224 242 "},"−":{"ha":556,"x_min":0,"x_max":0,"o":"m 38 540 l 518 540 l 518 432 l 38 432 "},"×":{"ha":556,"x_min":0,"x_max":0,"o":"m 56 333 l 203 486 l 57 638 l 131 711 l 278 560 l 425 713 l 499 639 l 351 486 l 499 333 l 425 260 l 278 413 l 129 260 "},"÷":{"ha":556,"x_min":0,"x_max":0,"o":"m 204 771 l 351 771 l 351 624 l 204 624 m 38 540 l 518 540 l 518 432 l 38 432 m 204 347 l 351 347 l 351 200 l 204 200 "},"=":{"ha":556,"x_min":0,"x_max":0,"o":"m 51 653 l 504 653 l 504 544 l 51 544 m 51 428 l 504 428 l 504 319 l 51 319 "},"≠":{"ha":556,"x_min":0,"x_max":0,"o":"m 125 319 l 51 319 l 51 428 l 189 428 l 258 544 l 51 544 l 51 653 l 322 653 l 396 778 l 504 778 l 431 653 l 504 653 l 504 544 l 367 544 l 297 428 l 504 428 l 504 319 l 233 319 l 160 194 l 51 194 "},">":{"ha":556,"x_min":0,"x_max":0,"o":"m 75 363 l 368 486 l 75 610 l 75 721 l 500 538 l 500 435 l 75 251 "},"<":{"ha":556,"x_min":0,"x_max":0,"o":"m 56 435 l 56 538 l 481 721 l 481 610 l 188 486 l 481 363 l 481 251 "},"≥":{"ha":556,"x_min":0,"x_max":0,"o":"m 71 460 l 346 549 l 71 638 l 71 749 l 496 600 l 496 497 l 71 349 m 71 322 l 496 322 l 496 214 l 71 214 "},"≤":{"ha":556,"x_min":0,"x_max":0,"o":"m 485 638 l 210 549 l 485 460 l 485 349 l 60 497 l 60 600 l 485 749 m 60 322 l 485 322 l 485 214 l 60 214 "},"±":{"ha":556,"x_min":0,"x_max":0,"o":"m 50 336 l 222 336 l 222 489 l 50 489 l 50 597 l 222 597 l 222 756 l 331 756 l 331 597 l 503 597 l 503 489 l 331 489 l 331 336 l 503 336 l 503 228 l 50 228 "},"≈":{"ha":556,"x_min":0,"x_max":0,"o":"m 17 564 b 185 703 69 654 113 703 b 288 663 215 703 238 694 b 369 624 326 638 346 624 b 460 707 404 624 422 651 l 539 647 b 371 508 486 557 443 508 b 268 549 340 508 318 517 b 186 588 229 574 210 588 b 96 504 151 588 133 560 m 17 325 b 185 464 69 415 113 464 b 288 424 215 464 238 456 b 369 385 326 399 346 385 b 460 468 404 385 422 413 l 539 408 b 371 269 486 318 443 269 b 268 310 340 269 318 278 b 186 349 229 335 210 349 b 96 265 151 349 133 321 "},"~":{"ha":556,"x_min":0,"x_max":0,"o":"m 17 444 b 185 583 69 535 113 583 b 288 543 215 583 238 575 b 369 504 326 518 346 504 b 460 588 404 504 422 532 l 539 528 b 371 389 486 438 443 389 b 268 429 340 389 318 397 b 186 468 229 454 210 468 b 96 385 151 468 133 440 "},"¬":{"ha":556,"x_min":0,"x_max":0,"o":"m 403 432 l 31 432 l 31 540 l 511 540 l 511 242 l 403 242 "},"∞":{"ha":893,"x_min":0,"x_max":0,"o":"m 246 251 b 36 488 97 251 36 369 b 243 721 36 607 99 721 b 440 593 333 721 389 676 l 446 593 b 647 721 490 664 549 721 b 857 485 796 721 857 603 b 650 251 857 365 794 251 b 453 379 560 251 504 296 l 446 379 b 246 251 403 308 344 251 m 254 364 b 372 464 319 364 349 414 l 386 493 b 254 611 354 539 326 611 b 154 488 193 611 154 557 b 254 364 154 419 190 364 m 639 361 b 739 485 700 361 739 415 b 639 610 739 553 703 610 b 521 508 574 610 546 553 l 504 479 b 639 361 539 433 567 361 "},"∅":{"ha":1019,"x_min":0,"x_max":0,"o":"m 75 117 l 160 206 b 75 479 106 279 75 374 b 510 928 75 736 260 928 b 771 844 610 928 699 897 l 850 928 l 944 842 l 860 753 b 944 479 914 679 944 585 b 510 31 944 222 760 31 b 249 114 410 31 321 61 l 169 31 m 675 744 b 510 797 629 778 572 797 b 221 479 344 797 221 664 b 261 311 221 417 235 358 m 510 161 b 799 479 675 161 799 294 b 758 647 799 542 785 600 l 344 214 b 510 161 390 181 447 161 "},"∫":{"ha":556,"x_min":0,"x_max":0,"o":"m 167 -236 b 75 -222 133 -236 104 -233 l 75 -83 b 138 -99 92 -92 110 -99 b 200 -29 179 -99 200 -76 l 200 844 b 386 1042 200 974 269 1042 b 478 1028 419 1042 449 1039 l 478 890 b 415 904 463 899 443 904 b 353 835 374 904 353 882 l 353 -39 b 167 -236 353 -168 283 -236 "},"Ω":{"ha":558,"x_min":0,"x_max":0,"o":"m 47 139 l 158 139 l 158 142 b 47 469 81 228 47 314 l 47 742 b 279 986 47 897 129 986 b 511 742 429 986 511 897 l 511 469 b 400 142 511 315 478 228 l 400 139 l 511 139 l 511 0 l 301 0 l 301 139 b 358 404 347 219 358 289 l 358 751 b 279 847 358 821 328 847 b 200 751 231 847 200 821 l 200 404 b 257 139 200 289 211 219 l 257 0 l 47 0 "},"∆":{"ha":557,"x_min":0,"x_max":0,"o":"m 175 972 l 382 972 l 540 0 l 17 0 m 367 139 l 274 789 l 271 789 l 178 139 "},"∏":{"ha":646,"x_min":0,"x_max":0,"o":"m 68 972 l 578 972 l 578 -222 l 425 -222 l 425 833 l 221 833 l 221 -222 l 68 -222 "},"∑":{"ha":571,"x_min":0,"x_max":0,"o":"m 35 -86 l 292 376 l 35 836 l 35 972 l 538 972 l 538 833 l 199 833 l 444 375 l 199 -83 l 538 -83 l 538 -222 l 35 -222 "},"√":{"ha":660,"x_min":0,"x_max":0,"o":"m 115 432 l 22 432 l 22 540 l 232 540 l 322 114 l 522 972 l 639 972 l 385 -90 l 231 -90 "},"µ":{"ha":563,"x_min":0,"x_max":0,"o":"m 57 694 l 210 694 l 210 207 b 282 128 210 151 236 128 b 363 224 328 128 363 154 l 363 694 l 515 694 l 515 0 l 376 0 l 376 72 b 243 -6 349 24 300 -6 l 210 -6 l 210 -222 l 57 -222 "},"∂":{"ha":594,"x_min":0,"x_max":0,"o":"m 276 -14 b 46 211 119 -14 46 65 b 47 243 46 219 46 226 l 60 413 b 236 628 69 553 129 628 b 375 539 308 628 353 597 l 378 539 l 392 719 b 393 747 393 735 393 740 b 315 847 393 822 364 847 b 233 754 271 847 238 822 l 232 729 l 90 733 l 92 749 b 325 986 106 903 178 986 b 544 788 465 986 544 903 b 543 725 544 768 544 747 l 508 224 b 276 -14 497 72 419 -14 m 276 128 b 357 218 326 128 353 158 l 369 417 b 290 488 361 461 339 488 b 211 394 240 488 215 457 l 200 238 b 199 200 199 215 199 207 b 276 128 199 150 228 128 "},"%":{"ha":818,"x_min":0,"x_max":0,"o":"m 196 432 b 49 588 100 432 49 488 l 49 831 b 196 986 49 931 100 986 b 343 831 292 986 343 931 l 343 588 b 196 432 343 488 292 432 m 549 972 l 646 972 l 269 0 l 172 0 m 196 519 b 246 581 226 519 246 538 l 246 838 b 196 899 246 881 226 899 b 146 838 164 899 146 881 l 146 581 b 196 519 146 538 164 519 m 622 -14 b 475 142 526 -14 475 42 l 475 385 b 622 540 475 485 526 540 b 769 385 718 540 769 485 l 769 142 b 622 -14 769 42 718 -14 m 622 74 b 672 135 653 74 672 92 l 672 392 b 622 453 672 435 653 453 b 572 392 590 453 572 435 l 572 135 b 622 74 572 92 590 74 "},"‰":{"ha":1174,"x_min":0,"x_max":0,"o":"m 196 432 b 49 588 100 432 49 488 l 49 831 b 196 986 49 931 100 986 b 343 831 292 986 343 931 l 343 588 b 196 432 343 488 292 432 m 549 972 l 646 972 l 269 0 l 172 0 m 196 519 b 246 581 226 519 246 538 l 246 838 b 196 899 246 881 226 899 b 146 838 164 899 146 881 l 146 581 b 196 519 146 538 164 519 m 622 -14 b 475 142 526 -14 475 42 l 475 385 b 622 540 475 485 526 540 b 769 385 718 540 769 485 l 769 142 b 622 -14 769 42 718 -14 m 978 -14 b 831 142 882 -14 831 42 l 831 385 b 978 540 831 485 882 540 b 1125 385 1074 540 1125 485 l 1125 142 b 978 -14 1125 42 1074 -14 m 622 74 b 672 135 653 74 672 92 l 672 392 b 622 453 672 435 653 453 b 572 392 590 453 572 435 l 572 135 b 622 74 572 92 590 74 m 978 74 b 1028 135 1008 74 1028 92 l 1028 392 b 978 453 1028 435 1008 453 b 928 392 946 453 928 435 l 928 135 b 978 74 928 92 946 74 "},"◊":{"ha":556,"x_min":0,"x_max":0,"o":"m 28 486 l 254 986 l 301 986 l 528 486 l 301 -14 l 254 -14 m 403 486 l 278 786 l 153 486 l 278 186 "},"":{"ha":881,"x_min":0,"x_max":0,"o":"m 349 61 b 32 374 160 61 32 189 b 367 686 32 556 157 686 l 449 686 l 449 847 l 665 847 l 665 686 l 849 686 l 849 475 l 665 475 l 665 392 b 349 61 665 185 533 61 m 350 275 b 449 390 404 275 449 313 l 449 475 l 365 475 b 251 375 289 475 251 431 b 350 275 251 315 293 275 "},"@":{"ha":967,"x_min":0,"x_max":0,"o":"m 481 -83 b 35 403 168 -83 35 115 b 547 1028 35 746 204 1028 b 933 619 840 1028 933 844 b 663 185 933 286 769 185 b 542 276 592 185 547 211 l 539 276 b 408 193 511 219 469 193 b 278 360 324 193 278 254 b 281 407 278 375 279 392 l 296 547 b 463 753 311 683 365 753 b 576 668 521 753 558 722 l 579 668 l 592 747 l 721 747 l 681 360 b 679 338 679 346 679 343 b 707 311 679 319 688 311 b 818 617 785 311 818 483 b 542 910 818 790 735 910 b 165 396 294 910 165 713 b 489 33 165 172 268 33 b 776 128 592 33 679 53 l 765 -6 b 481 -83 674 -67 583 -83 m 475 322 b 553 410 517 322 546 346 l 567 542 b 568 558 568 550 568 554 b 507 619 568 600 542 619 b 428 532 464 619 435 597 l 415 414 b 414 393 414 403 414 400 b 475 322 414 344 438 322 "},"&":{"ha":579,"x_min":0,"x_max":0,"o":"m 217 -14 b 47 208 104 -14 47 65 l 47 310 b 160 513 47 408 78 479 l 160 515 b 54 714 88 546 54 610 l 54 732 b 282 972 54 888 129 972 l 457 972 l 457 833 l 285 833 b 207 739 236 833 207 808 l 207 679 b 299 576 207 601 242 576 l 358 576 l 358 685 l 508 685 l 508 576 l 551 576 l 551 438 l 508 438 l 508 118 b 525 0 508 71 510 36 l 372 0 b 358 76 365 19 361 33 l 356 76 b 217 -14 324 19 285 -14 m 274 125 b 358 213 319 125 350 151 l 358 438 l 300 438 b 200 314 231 438 200 404 l 200 215 b 274 125 200 146 231 125 "},"¶":{"ha":624,"x_min":0,"x_max":0,"o":"m 242 424 b 36 661 125 424 36 522 l 36 732 b 292 972 36 888 139 972 l 553 972 l 553 -135 l 439 -135 l 439 861 l 356 861 l 356 -135 l 242 -135 "},"§":{"ha":556,"x_min":0,"x_max":0,"o":"m 278 -149 b 47 50 122 -149 47 -64 l 47 106 l 192 106 l 192 71 b 275 -22 192 18 219 -22 b 358 65 331 -22 358 13 b 239 175 358 114 331 143 b 32 404 76 232 32 303 b 136 590 32 478 60 549 l 136 593 b 44 779 63 646 44 706 b 278 986 44 893 122 986 b 508 788 433 986 508 901 l 508 746 l 364 746 l 364 767 b 281 860 364 819 336 860 b 197 772 225 860 197 825 b 317 663 197 724 225 694 b 524 433 479 606 524 535 b 419 246 524 360 496 289 l 419 243 b 511 58 493 190 511 132 b 278 -149 511 -56 433 -149 m 292 306 b 378 413 354 321 378 364 b 264 532 378 481 329 510 b 178 425 201 517 178 474 b 292 306 178 357 226 328 "},"©":{"ha":1025,"x_min":0,"x_max":0,"o":"m 513 -14 b 29 486 235 -14 29 199 b 513 986 29 774 235 986 b 996 486 790 986 996 774 b 513 -14 996 199 790 -14 m 513 83 b 896 486 736 83 896 251 b 513 889 896 721 736 889 b 129 486 289 889 129 721 b 513 83 129 251 289 83 m 507 181 b 350 350 403 181 350 242 l 350 619 b 507 792 350 731 403 792 b 664 619 611 792 664 731 l 664 569 l 564 569 l 564 628 b 510 694 564 676 543 694 b 456 628 476 694 456 676 l 456 344 b 510 279 456 296 476 279 b 564 344 543 279 564 296 l 564 428 l 664 428 l 664 350 b 507 181 664 242 611 181 "},"®":{"ha":1025,"x_min":0,"x_max":0,"o":"m 513 -14 b 29 486 235 -14 29 199 b 513 986 29 774 235 986 b 996 486 790 986 996 774 b 513 -14 996 199 790 -14 m 513 83 b 896 486 736 83 896 251 b 513 889 896 721 736 889 b 129 486 289 889 129 721 b 513 83 129 251 289 83 m 360 783 l 521 783 b 678 628 629 783 678 732 l 678 615 b 606 486 678 551 656 508 l 606 483 b 678 342 660 461 678 413 l 678 271 b 690 189 678 239 679 214 l 582 189 b 572 272 575 207 572 217 l 572 343 b 501 429 572 407 550 429 l 465 429 l 465 189 l 360 189 m 508 526 b 572 597 547 526 572 543 l 572 615 b 515 686 572 664 556 686 l 465 686 l 465 526 "},"℗":{"ha":1025,"x_min":0,"x_max":0,"o":"m 513 -14 b 29 486 235 -14 29 199 b 513 986 29 774 235 986 b 996 486 790 986 996 774 b 513 -14 996 199 790 -14 m 513 83 b 896 486 736 83 896 251 b 513 889 896 721 736 889 b 129 486 289 889 129 721 b 513 83 129 251 289 83 m 383 771 l 544 771 b 701 615 650 771 701 717 l 701 558 b 544 403 701 457 650 403 l 489 403 l 489 176 l 383 176 m 539 500 b 596 571 579 500 596 522 l 596 603 b 539 674 596 651 579 674 l 489 674 l 489 500 "},"™":{"ha":831,"x_min":0,"x_max":0,"o":"m 115 883 l 14 883 l 14 972 l 314 972 l 314 883 l 213 883 l 213 478 l 115 478 m 372 972 l 518 972 l 575 658 l 578 658 l 633 972 l 779 972 l 779 478 l 688 478 l 688 854 l 685 854 l 610 478 l 535 478 l 460 854 l 457 854 l 457 478 l 372 478 "},"°":{"ha":556,"x_min":0,"x_max":0,"o":"m 278 633 b 101 810 179 633 101 711 b 278 986 101 908 179 986 b 454 810 376 986 454 908 b 278 633 454 711 376 633 m 278 738 b 351 810 318 738 351 769 b 278 883 351 850 318 883 b 206 810 238 883 206 850 b 278 738 206 769 238 738 "},"|":{"ha":694,"x_min":0,"x_max":0,"o":"m 285 1111 l 410 1111 l 410 -278 l 285 -278 "},"¦":{"ha":694,"x_min":0,"x_max":0,"o":"m 285 1111 l 410 1111 l 410 556 l 285 556 m 285 278 l 410 278 l 410 -278 l 285 -278 "},"†":{"ha":556,"x_min":0,"x_max":0,"o":"m 208 582 l 31 582 l 31 714 l 208 714 l 208 972 l 347 972 l 347 714 l 525 714 l 525 582 l 347 582 l 347 -135 l 208 -135 "},"ℓ":{"ha":572,"x_min":0,"x_max":0,"o":"m 336 -14 b 132 186 204 -14 132 61 l 132 242 b 68 207 111 231 90 218 l 15 321 b 132 388 58 343 97 365 l 132 785 b 336 986 132 911 204 986 b 538 785 465 986 538 911 l 538 756 b 285 340 538 628 476 485 l 285 201 b 338 125 285 146 296 125 b 390 201 378 125 390 146 l 390 288 l 538 288 l 538 186 b 336 -14 538 61 465 -14 m 285 510 b 390 753 367 596 390 678 l 390 772 b 338 849 390 826 378 849 b 285 772 296 849 285 826 l 285 510 "},"‡":{"ha":556,"x_min":0,"x_max":0,"o":"m 208 124 l 31 124 l 31 256 l 208 256 l 208 582 l 31 582 l 31 714 l 208 714 l 208 972 l 347 972 l 347 714 l 525 714 l 525 582 l 347 582 l 347 256 l 525 256 l 525 124 l 347 124 l 347 -135 l 208 -135 "},"℮":{"ha":1140,"x_min":0,"x_max":0,"o":"m 574 -14 b 46 486 283 -14 46 211 b 574 986 46 760 283 986 b 1101 486 864 986 1101 760 l 1101 474 l 250 474 b 239 464 243 474 239 471 l 239 196 b 254 167 239 183 247 176 b 576 17 325 67 449 17 b 915 183 711 17 832 81 l 993 183 b 574 -14 894 63 742 -14 m 901 501 b 911 511 908 501 911 504 l 911 783 b 894 814 911 794 903 804 b 576 956 817 906 699 956 b 254 808 449 956 342 896 b 239 778 246 800 239 789 l 239 511 b 250 501 239 504 243 501 "},"№":{"ha":918,"x_min":0,"x_max":0,"o":"m 57 972 l 249 972 l 363 376 l 365 376 l 365 972 l 494 972 l 494 0 l 338 0 l 190 718 l 188 718 l 188 0 l 57 0 m 721 151 b 574 306 625 151 574 208 l 574 521 b 721 675 574 618 625 675 b 868 521 817 675 868 618 l 868 306 b 721 151 868 208 817 151 m 721 240 b 771 300 751 240 771 256 l 771 526 b 721 586 771 571 751 586 b 671 526 689 586 671 571 l 671 300 b 721 240 671 256 689 240 m 574 94 l 868 94 l 868 0 l 574 0 "},"^":{"ha":556,"x_min":0,"x_max":0,"o":"m 225 972 l 328 972 l 526 597 l 401 597 l 276 833 l 151 597 l 26 597 "},"℠":{"ha":832,"x_min":0,"x_max":0,"o":"m 169 467 b 29 592 78 467 29 511 l 29 622 l 122 622 l 122 593 b 168 547 122 560 140 547 b 214 594 194 547 214 560 b 131 693 214 639 194 660 b 32 847 47 736 32 785 b 171 981 32 925 79 981 b 310 856 263 981 310 935 l 310 840 l 218 840 l 218 854 b 174 900 218 886 200 900 b 129 856 146 900 129 886 b 213 760 129 814 149 796 b 310 603 293 714 310 667 b 169 467 310 521 263 467 m 374 972 l 519 972 l 576 658 l 579 658 l 635 972 l 781 972 l 781 478 l 689 478 l 689 854 l 686 854 l 611 478 l 536 478 l 461 854 l 458 854 l 458 478 l 374 478 "},"̈":{"ha":0,"x_min":0,"x_max":0,"o":"m -175 1179 l -39 1179 l -39 1038 l -175 1038 m 39 1179 l 175 1179 l 175 1038 l 39 1038 "},"̇":{"ha":0,"x_min":0,"x_max":0,"o":"m -69 1179 l 69 1179 l 69 1038 l -69 1038 "},"̀":{"ha":0,"x_min":0,"x_max":0,"o":"m -181 1197 l -14 1197 l 83 1038 l -32 1038 "},"́":{"ha":0,"x_min":0,"x_max":0,"o":"m 14 1197 l 181 1197 l 32 1038 l -83 1038 "},"̋":{"ha":0,"x_min":0,"x_max":0,"o":"m -83 1197 l 71 1197 l -74 1038 l -181 1038 m 124 1197 l 278 1197 l 133 1038 l 26 1038 "},"̂":{"ha":0,"x_min":0,"x_max":0,"o":"m -72 1197 l 72 1197 l 186 1038 l 71 1038 l 0 1114 l -71 1038 l -186 1038 "},"̌":{"ha":0,"x_min":0,"x_max":0,"o":"m -186 1197 l -71 1197 l 0 1121 l 71 1197 l 186 1197 l 72 1038 l -72 1038 "},"̆":{"ha":0,"x_min":0,"x_max":0,"o":"m -1 1032 b -164 1197 -106 1032 -160 1094 l -74 1197 b -1 1131 -67 1144 -40 1131 b 74 1197 39 1131 67 1144 l 164 1197 b -1 1032 161 1094 103 1032 "},"̊":{"ha":0,"x_min":0,"x_max":0,"o":"m 0 1022 b -124 1144 -71 1022 -124 1076 b 0 1267 -124 1213 -71 1267 b 124 1144 71 1267 124 1213 b 0 1022 124 1076 71 1022 m 0 1096 b 44 1144 25 1096 44 1115 b 0 1193 44 1174 25 1193 b -44 1144 -25 1193 -44 1174 b 0 1096 -44 1115 -25 1096 "},"̃":{"ha":0,"x_min":0,"x_max":0,"o":"m -193 1076 b -67 1193 -158 1154 -119 1193 b 17 1167 -29 1193 -4 1179 b 64 1149 33 1157 47 1149 b 119 1203 86 1149 101 1164 l 193 1158 b 67 1042 158 1081 119 1042 b -17 1068 29 1042 4 1056 b -64 1086 -33 1078 -47 1086 b -119 1032 -86 1086 -101 1071 "},"̄":{"ha":0,"x_min":0,"x_max":0,"o":"m -160 1158 l 160 1158 l 160 1050 l -160 1050 "},"̒":{"ha":0,"x_min":0,"x_max":0,"o":"m -64 1151 l -4 1240 l 50 1240 l 14 1165 l 64 1165 l 64 1038 l -64 1038 "},"̦":{"ha":0,"x_min":0,"x_max":0,"o":"m -14 -187 l -64 -187 l -64 -60 l 64 -60 l 64 -174 l 4 -262 l -50 -262 "},"̧":{"ha":0,"x_min":0,"x_max":0,"o":"m -11 -204 b -144 -124 -87 -204 -144 -187 l -144 -110 l -42 -110 l -42 -121 b -11 -149 -42 -142 -26 -149 b 25 -115 14 -149 25 -139 b -26 -79 25 -89 8 -79 l -33 -79 l -33 19 l 35 19 l 35 -54 b 131 -119 96 -54 131 -71 b -11 -204 131 -194 72 -204 "},"̨":{"ha":0,"x_min":0,"x_max":0,"o":"m 14 -204 b -108 -118 -61 -204 -108 -175 b -3 6 -108 -71 -74 -28 l 58 6 b 10 -81 18 -25 10 -60 b 58 -119 10 -107 33 -119 b 108 -111 86 -119 93 -115 l 108 -189 b 14 -204 76 -201 53 -204 "},"̵":{"ha":0,"x_min":0,"x_max":0,"o":"m -149 551 l 149 551 l 149 421 l -149 421 "},"̶":{"ha":0,"x_min":0,"x_max":0,"o":"m -290 549 l 290 549 l 290 424 l -290 424 "},"̷":{"ha":0,"x_min":0,"x_max":0,"o":"m -232 -10 l 163 1011 l 232 982 l -162 -39 "},"̸":{"ha":0,"x_min":0,"x_max":0,"o":"m -246 0 l 163 1008 l 246 972 l -162 -36 "},"ʼ":{"ha":0,"x_min":0,"x_max":0,"o":"m -15 825 l -74 825 l -74 972 l 74 972 l 74 840 l 7 686 l -56 686 "},"ˉ":{"ha":694,"x_min":0,"x_max":0,"o":"m 188 1158 l 507 1158 l 507 1050 l 188 1050 "},"´":{"ha":694,"x_min":0,"x_max":0,"o":"m 361 1197 l 528 1197 l 379 1038 l 264 1038 "},"˘":{"ha":694,"x_min":0,"x_max":0,"o":"m 346 1032 b 183 1197 242 1032 188 1094 l 274 1197 b 346 1131 281 1144 307 1131 b 421 1197 386 1131 414 1144 l 511 1197 b 346 1032 508 1094 450 1032 "},"ˇ":{"ha":694,"x_min":0,"x_max":0,"o":"m 161 1197 l 276 1197 l 347 1121 l 418 1197 l 533 1197 l 419 1038 l 275 1038 "},"¸":{"ha":694,"x_min":0,"x_max":0,"o":"m 343 -204 b 210 -124 267 -204 210 -187 l 210 -110 l 313 -110 l 313 -121 b 343 -149 313 -142 328 -149 b 379 -115 368 -149 379 -139 b 328 -79 379 -89 363 -79 l 321 -79 l 321 19 l 389 19 l 389 -54 b 485 -119 450 -54 485 -71 b 343 -204 485 -194 426 -204 "},"ˆ":{"ha":694,"x_min":0,"x_max":0,"o":"m 275 1197 l 419 1197 l 533 1038 l 418 1038 l 347 1114 l 276 1038 l 161 1038 "},"¨":{"ha":694,"x_min":0,"x_max":0,"o":"m 172 1179 l 308 1179 l 308 1038 l 172 1038 m 386 1179 l 522 1179 l 522 1038 l 386 1038 "},"˙":{"ha":694,"x_min":0,"x_max":0,"o":"m 278 1179 l 417 1179 l 417 1038 l 278 1038 "},"`":{"ha":694,"x_min":0,"x_max":0,"o":"m 167 1197 l 333 1197 l 431 1038 l 315 1038 "},"˝":{"ha":694,"x_min":0,"x_max":0,"o":"m 264 1197 l 418 1197 l 274 1038 l 167 1038 m 471 1197 l 625 1197 l 481 1038 l 374 1038 "},"¯":{"ha":694,"x_min":0,"x_max":0,"o":"m 188 1158 l 507 1158 l 507 1050 l 188 1050 "},"˛":{"ha":694,"x_min":0,"x_max":0,"o":"m 361 -204 b 239 -118 286 -204 239 -175 b 344 6 239 -71 274 -28 l 406 6 b 357 -81 365 -25 357 -60 b 406 -119 357 -107 381 -119 b 456 -111 433 -119 440 -115 l 456 -189 b 361 -204 424 -201 400 -204 "},"˚":{"ha":694,"x_min":0,"x_max":0,"o":"m 347 1022 b 224 1144 276 1022 224 1076 b 347 1267 224 1213 276 1267 b 471 1144 418 1267 471 1213 b 347 1022 471 1076 418 1022 m 347 1096 b 392 1144 372 1096 392 1115 b 347 1193 392 1174 372 1193 b 303 1144 322 1193 303 1174 b 347 1096 303 1115 322 1096 "},"˜":{"ha":694,"x_min":0,"x_max":0,"o":"m 154 1076 b 281 1193 189 1154 228 1193 b 364 1167 318 1193 343 1179 b 411 1149 381 1157 394 1149 b 467 1203 433 1149 449 1164 l 540 1158 b 414 1042 506 1081 467 1042 b 331 1068 376 1042 351 1056 b 283 1086 314 1078 300 1086 b 228 1032 261 1086 246 1071 "},"₿":{"ha":556,"x_min":0,"x_max":0,"o":"m 124 35 l 26 35 l 26 174 l 82 174 l 82 799 l 26 799 l 26 938 l 124 938 l 124 1035 l 210 1035 l 210 938 l 290 938 l 290 1035 l 376 1035 l 376 926 b 511 721 469 901 511 831 l 511 700 b 413 506 511 600 481 538 l 413 503 b 526 296 494 471 526 399 l 526 265 b 376 44 526 144 475 69 l 376 -76 l 290 -76 l 290 35 l 210 35 l 210 -76 l 124 -76 m 267 563 b 358 665 324 563 358 588 l 358 699 b 281 799 358 768 335 799 l 235 799 l 235 563 m 294 174 b 374 269 346 174 374 197 l 374 306 b 275 424 374 396 344 424 l 235 424 l 235 174 "},"":{"ha":694,"x_min":0,"x_max":0,"o":""},"":{"ha":694,"x_min":0,"x_max":0,"o":""},"":{"ha":694,"x_min":0,"x_max":0,"o":""}}}
